<svg width="20" height="20" viewBox="0 0 20 20" fill="none" xmlns="http://www.w3.org/2000/svg">
<circle cx="10" cy="10" r="10" fill="#DEB77B"/>
<path fill-rule="evenodd" clip-rule="evenodd" d="M15.5766 7.57702C15.128 6.31699 13.8224 4.91976 12.6618 4.45856C11.6198 4.04424 10.3297 3.86479 10.1849 4.11389C10.0046 4.42455 10.4065 4.73941 10.9832 4.73941C12.3623 4.73941 14.1257 5.94941 14.7952 7.35503C14.9881 7.76006 15.2189 8.59678 15.3084 9.21451C15.4987 10.5301 15.521 10.584 15.8231 10.4609C16.1423 10.3306 16.0113 8.79914 15.5766 7.57702ZM8.95266 7.49972C8.95266 7.03867 7.67884 4.99914 7.23184 4.74465C7.07867 4.65733 6.9003 4.58633 6.83582 4.58663C6.61563 4.58767 5.8544 5.15927 5.42388 5.64668C4.79908 6.35429 4.84948 6.95719 5.67856 8.70058C6.57466 10.5848 7.0836 11.3592 8.22297 12.5713C9.36305 13.7844 10.0404 14.288 11.8371 15.2594C13.5555 16.1884 14.0636 16.2249 14.7989 15.4727C15.4409 14.8163 15.7706 14.1725 15.6581 13.7955C15.5825 13.5413 14.711 12.7585 13.714 12.0488C13.143 11.6423 12.6591 11.7296 12.1438 12.3319C11.8914 12.6272 11.6053 12.8682 11.508 12.8673C11.0392 12.8632 9.81806 12.065 9.2003 11.3589C8.60309 10.676 7.94351 9.45133 7.94351 9.02518C7.94351 8.94983 8.1706 8.66838 8.44809 8.39981C8.78527 8.07327 8.95266 7.77474 8.95266 7.49972ZM14.5501 9.35037C14.6633 8.0866 13.8324 6.58062 12.6756 5.9527C12.3615 5.78224 11.7845 5.6025 11.3936 5.55306C10.7454 5.47158 10.6826 5.4915 10.6826 5.77835C10.6826 6.02924 10.8068 6.11492 11.2953 6.2015C12.9156 6.48865 13.8463 7.60817 14.0326 9.49432C14.0913 10.0896 14.494 9.97769 14.5501 9.35037ZM13.1212 9.34887C13.4139 9.15654 13.1921 8.18875 12.7292 7.63738C12.4568 7.31324 12.1626 7.14922 11.7465 7.0899C10.7931 6.95374 10.6715 7.53103 11.6139 7.71917C12.1576 7.82761 12.5568 8.29331 12.5568 8.81937C12.5568 9.23338 12.8618 9.51963 13.1212 9.34887Z" fill="white"/>
</svg>
