<?xml version="1.0" encoding="UTF-8"?>
<!DOCTYPE svg PUBLIC "-//W3C//DTD SVG 1.1//EN" "http://www.w3.org/Graphics/SVG/1.1/DTD/svg11.dtd">
<!-- Creator: CorelDRAW 2021.5 -->
<svg xmlns="http://www.w3.org/2000/svg" xml:space="preserve" width="163.474mm" height="56.3151mm" version="1.1" style="shape-rendering:geometricPrecision; text-rendering:geometricPrecision; image-rendering:optimizeQuality; fill-rule:evenodd; clip-rule:evenodd"
viewBox="0 0 16333.19 5626.6"
 xmlns:xlink="http://www.w3.org/1999/xlink"
 xmlns:xodm="http://www.corel.com/coreldraw/odm/2003">
 <defs>
  <style type="text/css">
   <![CDATA[
    .fil0 {fill:#2B2A29;fill-rule:nonzero}
   ]]>
  </style>
 </defs>
 <g id="Слой_x0020_1">
  <metadata id="CorelCorpID_0Corel-Layer"/>
  <g id="_2630378768928">
   <g>
    <path class="fil0" d="M3312.29 2250.45c0,1.85 -0.46,6.48 -1.39,13.92 -0.93,7.42 -1.85,17.17 -2.79,29.23 -0.93,12.07 -1.39,21.82 -1.39,29.25 -3.72,40.84 -8.35,62.19 -13.92,64.05 -5.58,5.57 -7.43,11.13 -5.58,16.71 3.71,11.13 0.46,37.13 -9.75,77.97 -10.21,40.84 -22.74,77.98 -37.59,111.4 -90.98,219.08 -215.37,420.52 -373.18,604.32 -11.13,12.99 -24.6,29.69 -40.38,50.12 -15.78,20.42 -24.6,31.57 -26.45,33.43 -14.86,18.56 -46.42,50.13 -94.7,94.68 -12.99,16.72 -19.49,25.07 -19.49,25.07 0,3.72 -3.72,5.58 -11.13,5.58 -7.42,0 -13.01,6.49 -16.71,19.49 -3.72,13 -19.5,29.7 -47.35,50.13 -27.85,20.42 -41.78,32.49 -41.78,36.21 0,3.71 -40.36,41.3 -121.14,112.78 -80.75,71.49 -139.7,121.14 -176.83,149 -74.28,59.4 -115.12,88.17 -122.53,86.32 -5.58,0 -8.35,2.79 -8.35,8.35 0,11.14 -62.21,54.77 -186.6,130.9 -7.43,5.57 -14.85,11.13 -22.28,16.72 -7.42,5.57 -14.86,10.66 -22.28,15.32 -7.43,4.64 -12.07,6.95 -13.92,6.95 -74.28,51.98 -190.3,115.11 -348.12,189.37 -53.84,26 -117.89,52.44 -192.16,79.37 -74.26,26.92 -114.18,38.52 -119.76,34.81 -3.7,0 -6.49,0.92 -8.35,2.79 0,7.42 -51.97,18.56 -155.94,33.41 -94.7,11.14 -145.74,13.93 -153.18,8.35 -5.58,-5.57 -10.21,-5.57 -13.93,0 -1.85,3.72 -21.35,4.66 -58.48,2.79 -37.13,-1.85 -67.77,-5.57 -91.9,-11.14 -131.82,-29.7 -233.94,-83.54 -306.33,-161.52 -37.14,-37.14 -67.31,-92.37 -90.52,-165.71 -23.21,-73.34 -30.16,-135.06 -20.88,-185.2 1.85,-9.28 4.64,-25.53 8.35,-48.74 3.72,-23.2 6.5,-38.52 8.35,-45.94l5.57 -52.91 -16.71 30.62 -16.71 22.29 0 -11.15c0,-11.14 6.5,-25.06 19.49,-41.76 13,-13 16.71,-25.07 11.14,-36.21 -7.42,-9.28 -9.27,-20.42 -5.58,-33.41 1.87,-13.01 12.53,-38.54 32.03,-76.58 19.49,-38.07 32.02,-56.17 37.59,-54.31l5.58 -2.78c3.72,-3.72 8.36,-9.29 13.93,-16.73 5.58,-7.41 11.14,-14.85 16.72,-22.27 3.72,-7.42 8.35,-14.86 13.92,-22.27 5.57,-7.43 9.74,-13.01 12.53,-16.73 2.79,-3.7 5.11,-4.64 6.96,-2.78 5.58,1.86 13,-3.71 22.28,-16.71 5.58,-13 12.99,-22.28 22.28,-27.85l0 8.35c-1.86,3.72 -4.64,8.35 -8.35,13.92 -14.86,22.28 -21.36,32.49 -19.49,30.63 5.57,-1.86 20.42,-18.56 44.55,-50.13 20.42,-27.86 38.06,-49.2 52.91,-64.04 9.28,-5.58 13.92,-11.14 13.92,-16.73 0,-3.7 -4.64,-3.7 -13.92,0 -5.57,1.87 -8.35,1.87 -8.35,0 3.72,-7.41 10.22,-11.13 19.49,-11.13 7.43,3.72 18.56,-4.64 33.42,-25.07 12.99,-20.42 22.27,-30.63 27.85,-30.63 5.57,0 8.36,-1.86 8.36,-5.58 1.86,-1.85 1.86,-3.24 0,-4.18 -1.86,-0.92 -5.58,-1.39 -11.15,-1.39 -7.42,3.72 -11.14,2.79 -11.14,-2.79 1.87,-5.57 6.5,-10.67 13.93,-15.31 7.43,-4.66 12.07,-6.04 13.93,-4.18 0,1.85 2.79,0.46 8.36,-4.18 5.57,-4.66 12.53,-11.14 20.88,-19.5 8.35,-8.35 17.18,-17.18 26.45,-26.46 35.28,-39 64.05,-64.98 86.34,-77.97l30.62 -27.86c-3.71,-5.57 -10.2,-1.85 -19.49,11.15 -18.56,18.55 -27.84,21.34 -27.84,8.35 1.85,-9.28 30.62,-36.21 86.32,-80.77 55.7,-44.55 87.25,-64.97 94.68,-61.27 9.28,0 30.64,-13.93 64.05,-41.77l30.64 -30.63c-1.86,1.86 -7.43,5.57 -16.71,11.13 -31.56,22.29 -47.35,28.79 -47.35,19.5 0,-5.57 28.32,-28.32 84.94,-68.22 56.63,-39.94 91.43,-61.75 104.44,-65.45 12.99,-3.72 19.48,-8.35 19.48,-13.93 0,-7.42 7.89,-16.24 23.68,-26.46 15.78,-10.2 28.31,-15.31 37.6,-15.31 7.43,0 11.13,-2.79 11.13,-8.36 1.87,-11.14 27.86,-29.7 77.99,-55.69 22.27,-9.29 43.63,-22.29 64.05,-39 24.12,-20.42 54.76,-38.99 91.89,-55.7 37.13,-18.55 77.97,-40.84 122.54,-66.83 40.84,-22.28 95.15,-50.6 162.92,-84.94 67.76,-34.35 103.51,-50.6 107.21,-48.74 1.87,0 8.35,-2.79 19.5,-8.35 18.56,-18.57 133.67,-66.84 345.33,-144.81 9.28,-3.72 17.63,-7.43 25.06,-11.14 7.43,-3.72 15.33,-6.97 23.68,-9.76 8.35,-2.78 15.32,-5.57 20.88,-8.35 5.57,-2.78 10.22,-5.11 13.92,-6.95 3.72,-1.86 6.5,-3.72 8.35,-5.58l2.8 -2.78c0,-5.58 3.71,-6.5 11.14,-2.79 3.71,1.85 29.7,-4.64 77.97,-19.49 137.39,-42.7 219.08,-44.56 245.08,-5.57 14.86,22.27 13.92,35.26 -2.79,38.98 -9.28,0 -15.79,5.58 -19.5,16.71 -1.85,7.43 -14.84,13.01 -38.98,16.73 -87.26,7.41 -196.81,37.13 -328.62,89.11 -33.42,11.13 -50.13,16.71 -50.13,16.71 -5.57,-1.86 -61.73,19.96 -168.49,65.44 -106.75,45.49 -167.55,72.88 -182.41,82.16 -7.42,5.58 -33.41,18.56 -77.97,38.99 -96.55,42.71 -201.44,100.26 -314.7,172.67 -37.13,20.42 -77.04,44.56 -119.76,72.41 -137.39,81.69 -275.7,183.8 -414.94,306.33 -126.26,107.69 -219.09,199.59 -278.5,275.71 -3.71,3.72 -7.89,8.36 -12.53,13.93 -4.64,5.58 -7.89,10.21 -9.75,13.93l-5.57 5.57c-3.72,1.85 -34.35,41.77 -91.91,119.76 -31.56,40.84 -64.97,96.07 -100.25,165.69 -35.27,69.64 -51.06,109.07 -47.34,118.37 3.72,3.72 1.85,17.63 -5.58,41.77 -33.42,116.97 -36.21,216.3 -8.35,297.99 35.28,100.25 144.81,155.94 328.61,167.08 94.7,7.43 203.3,-2.78 325.84,-30.62 146.67,-35.28 284.99,-86.34 414.96,-153.18 137.39,-72.41 236.7,-128.11 297.97,-167.08 68.71,-40.85 103.05,-58.49 103.05,-52.92 -1.85,3.72 -33.88,25.54 -96.08,65.45 -62.2,39.91 -101.65,63.58 -118.36,71.01 -18.57,7.43 -36.21,17.63 -52.91,30.64 -18.57,14.84 -77.97,45.02 -178.23,90.5 -100.26,45.48 -175.46,76.58 -225.58,93.29l-75.19 30.64c5.58,0 5.58,2.78 0,8.35 -3.71,5.57 -8.35,5.57 -13.92,0 -5.58,-5.58 -33.41,-2.79 -83.55,8.35 -76.12,18.57 -156.42,28.32 -240.89,29.24 -84.48,0.92 -149.92,-6.95 -196.34,-23.68 -18.57,-5.57 -31.56,-9.28 -39,-11.14 -5.57,-1.85 -7.41,-1.85 -5.57,0l36.21 19.49c16.71,5.59 47.81,12.07 93.29,19.5 45.49,7.42 84.48,12.07 116.97,13.93 32.49,1.85 51.53,0.93 57.09,-2.79 0,-9.28 6.5,-10.22 19.49,-2.79 16.71,3.72 45.49,2.79 86.33,-2.78 96.54,-13.01 178.22,-32.49 245.07,-58.49l11.15 -8.35c-5.58,-1.87 -5.58,-5.57 0,-11.14 9.27,-3.72 13.92,-2.78 13.92,2.79 0,1.85 2.33,2.79 6.96,2.79 4.64,0 12.07,-0.94 22.27,-2.79 10.22,-1.87 20.9,-4.65 32.03,-8.36 109.53,-37.13 168.02,-64.05 175.46,-80.76 -7.43,-3.72 -6.5,-8.35 2.78,-13.93 5.58,-5.57 10.21,-4.64 13.93,2.79 3.72,7.42 19.49,4.64 47.35,-8.35 189.36,-94.69 346.25,-190.3 470.64,-286.85l142.03 -103.03c42.71,-31.56 119.3,-96.55 229.76,-194.95 110.46,-98.4 185.2,-168.94 224.17,-211.66 13.01,-12.99 32.03,-32.95 57.09,-59.88 25.08,-26.91 40.39,-43.15 45.96,-48.73 22.27,-24.14 51.53,-58.96 87.72,-104.44 36.21,-45.48 54.3,-70.08 54.3,-73.8l-16.71 19.49c-5.57,3.72 -9.28,7.43 -11.14,11.14 -50.13,57.56 -81.69,87.25 -94.69,89.12 3.72,-9.29 -12.99,2.78 -50.13,36.2 -35.27,31.55 -52.91,46.41 -52.91,44.56l41.76 -58.49c29.71,-29.7 44.57,-47.35 44.57,-52.91 0,-3.72 14.85,-25.06 44.56,-64.05 61.27,-74.26 87.25,-110.46 77.97,-108.62 0,0 -1.85,1.87 -5.57,5.59 -16.72,16.71 -27.39,27.39 -32.03,32.02 -4.65,4.64 -7.88,6.02 -9.75,4.18 -1.85,-1.86 11.61,-24.6 40.38,-68.23 28.77,-43.63 45.96,-68.23 51.53,-73.8 5.57,-1.86 33.88,-48.75 84.94,-140.64 51.07,-91.91 82.15,-150.86 93.3,-176.85 18.56,-44.56 43.63,-119.76 75.19,-225.58 16.71,-74.26 21.34,-146.66 13.92,-217.22 -20.42,-178.23 -108.62,-297.05 -264.56,-356.47 -72.41,-29.7 -162.45,-50.13 -270.13,-61.27 -42.71,-3.71 -117.44,-6.96 -224.19,-9.74 -106.75,-2.79 -174.98,-2.33 -204.68,1.39 -9.29,1.87 -26.47,3.72 -51.53,5.57 -25.06,1.87 -40.38,2.79 -45.95,2.79 -90.98,3.72 -226.5,20.42 -406.6,50.13 -42.71,9.29 -71.49,13.93 -86.33,13.93 -7.42,0 -14.85,1.86 -22.28,5.57 -42.69,14.86 -127.17,30.64 -253.43,47.35 -27.84,1.85 -82.62,13.92 -164.31,36.21l-206.08 44.55 -89.11 19.5 -64.05 155.94c-46.42,109.55 -99.33,248.79 -158.75,417.75l-22.27 58.48c-13,38.99 -23.21,68.69 -30.64,89.11 -42.69,115.12 -65.9,192.16 -69.62,231.16 0,12.99 4.65,24.12 13.94,33.41 16.71,20.42 18.55,32.49 5.57,36.21 -1.86,0 -3.72,0 -5.57,0 -9.29,0 -10.22,18.55 -2.79,55.7 3.71,14.85 -0.93,28.32 -13.94,40.36 -12.99,12.07 -25.06,14.4 -36.19,6.96 -3.72,-5.57 -9.29,-8.35 -16.73,-8.35 -7.41,-1.85 -17.17,-7.88 -29.23,-18.09 -12.07,-10.21 -18.09,-17.19 -18.09,-20.88 0,-7.43 -8.35,-15.79 -25.08,-25.08 -16.71,-11.14 -32.49,-35.28 -47.33,-72.41 -14.86,-37.13 -19.5,-64.97 -13.94,-83.54 5.58,-26 -5.57,-52.91 -33.41,-80.76 -13,-14.86 -38.52,-49.68 -76.58,-104.44 -38.06,-54.77 -63.59,-95.16 -76.59,-121.14 -44.55,-77.97 -81.69,-165.24 -111.38,-261.78 -9.29,-29.7 -20.42,-47.35 -33.43,-52.91 -27.84,-7.42 -33.41,-76.12 -16.71,-206.08 7.42,-66.83 13.47,-110 18.1,-129.5 4.65,-19.5 12.53,-31.1 23.68,-34.82 11.13,-1.85 22.27,-20.42 33.41,-55.69 94.69,-263.64 220.93,-476.21 378.75,-637.74 37.13,-38.99 54.76,-54.77 52.91,-47.34 0,3.71 -5.58,12.06 -16.71,25.06 -102.12,105.84 -153.18,166.17 -153.18,181.02 0,1.86 1.39,1.39 4.18,-1.39 2.78,-2.79 6.49,-6.96 11.13,-12.53 4.66,-5.59 9.76,-12.07 15.33,-19.5 38.99,-50.14 100.25,-114.19 183.81,-192.16 50.12,-44.55 70.54,-66.83 61.27,-66.83 -9.28,-1.86 0,-13.93 27.85,-36.2 33.42,-27.86 75.66,-59.42 126.71,-94.7 51.06,-35.27 78.45,-51.97 82.15,-50.13l22.29 0 11.14 -2.79c0,0 -2.79,-1.85 -8.35,-5.57 -9.29,-3.72 2.78,-16.71 36.2,-38.99 7.42,-5.58 17.63,-12.07 30.63,-19.5 53.83,-33.41 84.48,-48.26 91.9,-44.55 1.86,-1.86 3.72,-2.79 5.57,-2.79 -1.85,-3.71 18.11,-17.63 59.88,-41.77 41.77,-24.14 88.19,-49.67 139.24,-76.58 51.07,-26.92 87.73,-44.1 110.01,-51.52 13,-3.72 43.63,-40.84 91.91,-111.4 139.24,-213.51 226.5,-325.83 261.77,-336.97 3.71,-1.87 12.99,-7.43 27.85,-16.73 11.14,-7.41 17.64,-6.48 19.49,2.79 1.86,9.28 14.86,14.86 39,16.72 37.13,1.86 74.27,23.21 111.39,64.05 12.99,14.86 21.36,30.17 25.06,45.96 3.72,15.78 0.94,25.52 -8.35,29.23 -1.85,1.85 -5.57,7.42 -11.13,16.71 0,11.14 -15.79,32.49 -47.35,64.05 -12.99,16.72 -23.67,30.16 -32.02,40.38 -8.35,10.2 -11.61,15.32 -9.74,15.32 0,1.85 1.39,2.78 4.18,2.78 2.78,0 7.41,-0.46 13.92,-1.39 6.5,-0.93 12.53,-2.33 18.09,-4.18 77.98,-11.14 151.32,-2.79 220.02,25.06 42.7,18.57 72.41,39 89.11,61.27 16.71,22.29 27.85,55.7 33.42,100.26 7.42,57.55 -6.49,117.9 -41.77,181.02 -39,66.83 -103.05,142.96 -192.16,228.35l-203.29 186.59c-94.69,89.13 -186.13,172.21 -274.32,249.25 -88.18,77.05 -136,114.66 -143.41,112.79 -7.42,0 -13.01,3.72 -16.71,11.14 -1.87,7.43 -21.36,24.14 -58.49,50.13 -128.11,94.7 -187.52,142.03 -178.23,142.03 94.7,-27.84 257.15,-60.34 487.36,-97.46 185.66,-35.27 344.39,-54.76 476.2,-58.48 22.29,0 61.28,-1.85 116.97,-5.57 51.98,-3.72 149.92,-0.48 293.81,9.74 143.88,10.2 229.75,19.96 257.61,29.23 9.28,1.87 21.34,5.11 36.2,9.76 14.85,4.64 23.2,6.95 25.07,6.95 48.27,12.99 103.03,35.74 164.31,68.23 61.27,32.49 108.61,65.44 142.04,98.86 27.85,25.99 58.01,60.81 90.5,104.43 32.49,43.63 47.81,70.09 45.96,79.37 0,1.87 5.57,13.92 16.71,36.21 18.56,29.7 34.34,77.04 47.34,142.03 12.99,64.98 18.56,119.76 16.71,164.32zm-1551.18 -1178.02c16.71,-12.99 25.06,-21.35 25.06,-25.06 -7.43,3.71 -15.79,10.21 -25.06,19.49l-25.08 22.27c0,1.87 2.33,0.94 6.96,-2.78 4.65,-3.71 10.68,-8.35 18.11,-13.93zm-8.36 -55.69c33.42,-29.71 60.35,-54.31 80.77,-73.81 20.42,-19.48 29.69,-30.16 27.84,-32.03 0,-5.57 -8.35,0 -25.06,16.73 -18.56,11.13 -29.7,16.71 -33.42,16.71 -9.28,0 -42.7,25.53 -100.25,76.58 -57.56,51.06 -85.41,79.36 -83.56,84.95 3.72,7.41 7.43,11.13 11.14,11.13 7.43,0 48.28,-33.42 122.54,-100.25zm-292.41 -192.16c-103.98,163.38 -193.09,313.77 -267.35,451.16 -26,50.13 -45.49,84.48 -58.48,103.04 -14.86,18.57 -20.42,38.99 -16.73,61.27 0,1.86 5.58,0 16.73,-5.57 11.13,-5.57 25.52,-14.86 43.15,-27.86 17.64,-12.99 35.75,-27.85 54.31,-44.55 87.25,-68.7 129.04,-105.83 125.32,-111.4 -3.72,-3.71 -2.33,-8.82 4.18,-15.31 6.49,-6.5 12.53,-9.76 18.1,-9.76 0,1.87 0,4.65 0,8.36 -5.58,9.28 -2.8,9.28 8.35,0 9.28,-5.57 13.93,-13 13.93,-22.28 0,-9.29 20.42,-29.71 61.27,-61.27l125.32 -97.46c42.69,-37.15 76.12,-62.21 100.25,-75.19 20.42,-18.57 29.7,-28.78 27.86,-30.64 -1.87,-3.72 2.78,-9.28 13.92,-16.71 11.14,-7.43 18.57,-10.21 22.28,-8.35 3.72,1.86 12.54,-2.78 26.46,-13.93 13.93,-11.14 20.88,-19.49 20.88,-25.07 0,-3.71 5.58,-7.41 16.71,-11.13 11.15,-5.58 22.29,-15.79 33.43,-30.64 7.41,-18.55 31.56,-46.41 72.41,-83.55 113.25,-107.68 172.66,-195.87 178.23,-264.56 3.72,-18.57 8.35,-33.42 13.92,-44.56 5.58,-9.28 0.93,-20.42 -13.92,-33.41 -31.56,-31.57 -81.69,-45.5 -150.38,-41.78 -35.28,1.86 -77.99,8.81 -128.11,20.88 -50.13,12.08 -79.84,22.75 -89.12,32.04 -11.14,11.13 -16.71,19.48 -16.71,25.06l-52.91 80.77c-35.28,48.27 -52.92,76.1 -52.92,83.54 0,1.86 -0.46,3.72 -1.39,5.58 -0.93,1.85 -2.33,1.85 -4.18,0 -3.72,-1.86 -10.2,1.85 -19.49,11.13 -9.28,9.29 -18.56,21.36 -27.86,36.22 -7.41,14.85 -12.99,22.27 -16.71,22.27 -5.57,0 -8.35,2.79 -8.35,8.35 0,3.72 -24.14,45.49 -72.41,125.32zm-534.7 -89.11c-1.85,3.71 -1.85,6.48 0,8.35 7.43,0 12.07,-2.79 13.94,-8.35 0,-3.72 -0.94,-6.5 -2.79,-8.35 -7.43,0 -11.15,2.79 -11.15,8.35zm-139.25 91.9c-89.1,61.27 -133.67,99.32 -133.67,114.18 0,1.85 3.25,0.46 9.75,-4.18 6.49,-4.64 16.25,-12.53 29.24,-23.67 14.86,-14.86 45.48,-40.84 91.9,-77.98l50.13 -36.2 -47.35 27.85zm-498.5 492.93c-12.99,18.56 -17.63,27.84 -13.92,27.84 5.57,0 13,-9.27 22.27,-27.84 3.72,-7.42 6.97,-13.47 9.76,-18.1 2.78,-4.65 3.24,-6.95 1.39,-6.95 -7.43,7.41 -13.94,15.77 -19.5,25.06zm122.53 1253.21c14.86,-61.27 44.11,-157.35 87.73,-288.25 43.63,-130.89 71.94,-207.47 84.94,-229.74 5.58,-7.43 12.07,-23.21 19.49,-47.35 1.87,-13 6.5,-26.93 13.92,-41.77 5.59,-9.29 0,-13.93 -16.71,-13.93 -18.55,-3.72 -35.27,-12.07 -50.13,-25.06 -26,-22.29 -39.92,-62.2 -41.76,-119.76 0,-11.15 0.92,-18.1 2.78,-20.89 1.86,-2.79 6.5,-2.31 13.93,1.39 24.14,7.43 77.05,-12.99 158.74,-61.27l47.34 -27.85 69.62 -153.16c85.41,-183.81 201.44,-402.89 348.12,-657.25 14.86,-24.14 32.02,-52.44 51.53,-84.94 19.49,-32.49 34.34,-57.09 44.55,-73.8 10.21,-16.73 16.25,-26.93 18.1,-30.64 9.28,-16.71 26,-41.77 50.13,-75.19l33.42 -52.91 -33.42 16.71c-174.53,90.98 -349.96,203.31 -526.35,336.99 -183.8,141.1 -336.97,310.04 -459.5,506.85 -107.69,174.52 -172.67,360.18 -194.94,556.98 -3.72,55.69 -0.94,105.82 8.35,150.38 29.7,105.84 73.34,212.58 130.89,320.27 66.84,124.38 104.9,186.59 114.18,186.59 3.72,0 12.07,-24.14 25.06,-72.41zm598.77 -1306.12c0,-3.72 -2.79,-2.79 -8.35,2.78 -1.87,1.87 -3.72,5.58 -5.59,11.14 -1.85,3.72 -2.79,6.5 -2.79,8.35 1.87,0 4.66,-0.92 8.37,-2.79 5.57,-5.57 8.35,-12.05 8.35,-19.48zm-426.1 958c3.72,-3.71 5.58,-11.14 5.58,-22.28 -1.86,-11.14 -4.64,-8.35 -8.35,8.35 0,7.42 0.93,12.07 2.78,13.93zm-139.24 601.55c9.28,14.85 13.92,18.55 13.92,11.13 -3.72,-5.57 -7.42,-10.21 -11.13,-13.92 -9.29,-7.43 -10.22,-6.5 -2.79,2.79zm367.61 -874.47c7.42,-13 10.66,-20.88 9.74,-23.67 -0.93,-2.78 -6.03,-4.18 -15.33,-4.18 -3.71,-1.86 -6.95,-1.86 -9.74,0 -2.79,1.86 -3.25,4.64 -1.39,8.35 7.42,16.71 -3.71,36.2 -33.42,58.49 -11.13,11.14 -19.5,28.77 -25.07,52.9 -1.85,9.28 -5.57,22.74 -11.14,40.38 -5.57,17.63 -8.35,28.32 -8.35,32.03l-5.57 25.06c1.85,0 5.57,-2.79 11.14,-8.35l0 0 13.92 -5.57c-18.55,33.41 -33.41,51.05 -44.55,52.91 -11.15,0 -14.86,4.64 -11.15,13.92 0,7.42 -4.64,13.93 -13.92,19.49 -7.42,1.85 -11.14,9.28 -11.14,22.27 3.72,13.01 1.85,21.36 -5.57,25.08 -11.14,20.42 -19.49,44.56 -25.06,72.41 -13.01,48.26 -24.14,69.62 -33.43,64.04 -1.85,0 -3.72,-1.85 -5.57,-5.57 -5.57,-7.43 4.64,-43.63 30.62,-108.62 3.72,-18.55 5.59,-30.62 5.59,-36.2 0,-5.57 0.92,-9.28 2.79,-11.15 5.57,0 22.27,-34.34 50.12,-103.03 25.99,-64.98 41.77,-100.26 47.35,-105.83 3.72,-1.86 11.13,-19.49 22.27,-52.91 9.28,-31.56 17.63,-51.06 25.07,-58.49 5.58,-7.42 5.58,-11.14 0,-11.14 -5.57,1.87 -19.48,6.5 -41.77,13.93 -25.99,9.28 -44.55,25.07 -55.7,47.35 -7.42,16.71 -11.14,30.63 -11.14,41.77 3.72,0 5.58,-1.87 5.58,-5.57 0,-5.58 4.65,-13.01 13.92,-22.29 5.59,-5.57 8.36,-6.49 8.36,-2.79 -1.86,3.72 -5.57,14.86 -11.14,33.43 -13,33.41 -23.21,50.13 -30.63,50.13 -1.85,1.85 -0.93,-3.72 2.79,-16.72l5.57 -19.49c-3.72,0 -13.92,22.27 -30.62,66.84 -18.57,48.28 -28.79,74.27 -30.64,77.97 1.85,1.86 2.79,3.72 2.79,5.57 5.57,-5.57 13,-20.42 22.28,-44.55 9.27,-16.72 14.85,-24.14 16.71,-22.28 -1.86,14.85 -16.71,57.56 -44.56,128.1 -7.41,7.43 -12.07,10.22 -13.92,8.37 -1.87,-1.87 -5.57,2.78 -11.14,13.92 -16.72,35.28 -26.93,69.62 -30.64,103.03 -1.85,18.57 -4.64,27.86 -8.35,27.86 -1.85,-1.86 -4.64,0.94 -8.35,8.35l-33.42 108.62c-16.71,50.13 -25.06,87.26 -25.06,111.39 3.72,13 1.85,19.5 -5.57,19.5 -7.43,7.41 -12.07,19.48 -13.93,36.19 -3.72,20.43 0,39.94 11.14,58.49 12.99,14.86 19.49,19.5 19.49,13.92 3.72,-9.27 1.86,-13.92 -5.58,-13.92 -3.72,0 -6.95,-4.64 -9.74,-13.92 -2.79,-9.29 -2.33,-14.86 1.39,-16.71 5.58,-1.87 10.21,-7.43 13.93,-16.72 1.86,5.58 3.72,10.21 5.57,13.93 -1.85,22.27 0,27.85 5.57,16.71 1.87,-7.42 5.58,-18.57 11.15,-33.42 27.85,-118.83 48.27,-188.45 61.26,-208.87 3.72,-3.72 7.43,-13.92 11.15,-30.63 0,-13 2.79,-21.35 8.35,-25.07 7.42,-3.71 11.14,0 11.14,11.14 0,14.86 -4.64,34.36 -13.92,58.48 -14.86,37.15 -22.29,57.57 -22.29,61.27 0,7.43 -4.64,17.64 -13.93,30.64 -9.28,24.14 -16.71,52.91 -22.27,86.32 -7.43,40.85 -13,67.77 -16.71,80.76 -5.59,13.01 -6.5,25.08 -2.79,36.21 9.27,16.72 14.85,14.86 16.71,-5.57 1.86,-7.42 2.79,-19.49 2.79,-36.21 1.85,-35.26 6.5,-53.83 13.92,-55.69 5.58,-1.86 13.01,-15.79 22.28,-41.77 9.28,-25.99 13,-43.63 11.15,-52.91 0,-3.72 1.85,-9.28 5.57,-16.71 20.42,-51.98 37.13,-99.33 50.12,-142.03 9.29,-27.86 28.79,-70.56 58.49,-128.12 27.86,-51.98 41.77,-83.55 41.77,-94.68 0,-13.01 6.5,-30.63 19.49,-52.92 11.15,-22.27 16.72,-34.34 16.72,-36.19 0,-5.59 4.64,-17.64 13.93,-36.22 9.28,-20.42 17.63,-43.62 25.06,-69.62 7.43,-29.7 13.92,-50.13 19.5,-61.27zm2.79 -44.56c9.27,0 15.77,-1.85 19.48,-5.57 0,-9.29 -8.35,-10.21 -25.07,-2.79 -7.42,3.72 -6.49,6.5 2.8,8.35 0,0 0.92,0 2.79,0zm150.38 -423.3c11.13,-11.15 18.56,-26 22.27,-44.56 5.57,-22.28 11.14,-38.99 16.72,-50.13 5.58,-11.14 11.14,-15.79 16.71,-13.92 7.42,0 13,-5.58 16.72,-16.72l0 -11.15c-5.58,3.72 -8.36,1.87 -8.36,-5.57 1.86,-11.14 10.21,-28.77 25.07,-52.91 44.56,-83.55 69.62,-123.45 75.19,-119.74 5.58,3.7 11.14,0.46 16.71,-9.76 5.58,-10.2 8.35,-21.81 8.35,-34.81 3.72,-18.56 10.21,-32.49 19.49,-41.77 13.01,-12.99 17.64,-23.21 13.93,-30.62 -1.86,-1.87 7.43,-18.57 27.86,-50.14 20.42,-29.7 30.62,-46.41 30.62,-50.13 0,-1.86 5.57,-8.35 16.72,-19.49 13,-9.28 17.64,-17.63 13.93,-25.07 -3.72,-3.71 0.93,-12.99 13.92,-27.85 11.14,-11.14 16.71,-20.42 16.71,-27.85 5.58,-9.28 9.29,-14.86 11.15,-16.72 1.86,-1.86 3.71,-1.4 5.58,1.39 1.85,2.79 1.85,6.04 0,9.74 -3.72,14.86 -3.72,22.29 0,22.29 1.85,1.85 5.57,-0.93 11.13,-8.35 5.58,-7.43 9.29,-10.68 11.14,-9.74 1.85,0.92 1.85,6.95 0,18.09 0,11.14 -2.79,17.63 -8.35,19.49 -5.57,0 -8.35,6.5 -8.35,19.49 -5.57,16.72 -12.07,27.86 -19.5,33.42 -7.42,7.42 -14.84,18.57 -22.27,33.42 -3.72,9.27 -12.07,20.41 -25.07,33.42 -11.15,7.41 -19.02,18.09 -23.68,32.03 -4.64,13.92 -3.24,21.81 4.18,23.66 3.72,1.86 10.22,-3.72 19.5,-16.71 9.28,-13 21.35,-33.42 36.2,-61.27 29.71,-55.7 48.28,-87.26 55.7,-94.69 29.7,-44.57 44.56,-69.63 44.56,-75.19 0,-3.72 -3.72,-5.57 -11.14,-5.57 -7.43,0 -15.33,0.93 -23.68,2.78 -8.35,1.86 -13.46,4.64 -15.31,8.35 -3.72,5.58 -7.42,6.5 -11.14,2.79 -3.72,-3.72 5.57,-19.49 27.85,-47.35 11.13,-16.71 18.1,-28.77 20.89,-36.2 2.79,-7.43 2.32,-12.07 -1.39,-13.92 -3.72,-3.72 -7.43,-1.87 -11.15,5.57 0,3.71 -4.64,10.21 -13.93,19.49 -11.13,14.86 -17.63,16.71 -19.48,5.57l11.13 -30.62c13.01,-22.29 15.79,-33.42 8.35,-33.42 -7.41,0 -11.13,4.64 -11.13,13.92 0,11.14 -2.79,17.63 -8.35,19.5 -5.58,1.85 -8.35,7.42 -8.35,16.71 0,5.57 -7.43,15.78 -22.29,30.63 -14.84,14.85 -22.27,25.99 -22.27,33.42 -1.86,9.28 -7.42,22.27 -16.72,38.98 -9.28,16.73 -17.63,26.01 -25.07,27.86 -9.27,0 -12.06,3.72 -8.35,11.14 0,3.72 -2.79,12.07 -8.35,25.06 -5.57,13.01 -12.07,24.14 -19.49,33.43 -7.43,9.28 -13,13.92 -16.71,13.92 -5.58,0 -12.07,12.07 -19.5,36.21 -9.28,27.85 -20.42,51.98 -33.41,72.41 -16.72,22.27 -36.21,54.76 -58.48,97.46 -5.58,11.15 -11.61,21.35 -18.1,30.64 -6.49,9.28 -11.61,16.71 -15.33,22.27 -3.71,5.57 -6.48,7.43 -8.35,5.57 -1.85,-1.85 1.87,-11.13 11.14,-27.84 7.43,-13.01 11.14,-23.21 11.14,-30.64 -1.86,-1.85 -5.58,1.41 -11.14,9.76 -5.57,8.35 -10.21,18.55 -13.92,30.62 -3.72,12.07 -4.65,19.96 -2.79,23.68 1.85,3.71 1.39,9.74 -1.4,18.09 -2.78,8.36 -6.95,18.1 -12.53,29.24 -5.57,11.13 -11.13,21.35 -16.71,30.63 -5.58,9.29 -10.67,17.17 -15.33,23.67 -4.64,6.5 -7.87,8.82 -9.74,6.96 -3.72,-1.86 -6.5,-0.92 -8.35,2.78 -1.85,3.72 -1.85,9.29 0,16.73 0,18.55 -1.85,29.69 -5.57,33.41 -1.86,1.85 -12.07,19.49 -30.64,52.91 -12.99,27.85 -23.21,41.77 -30.63,41.77 -5.57,-3.72 -10.21,-1.86 -13.92,5.58 -5.57,9.27 -7.43,14.86 -5.57,16.71l8.35 -2.79c3.72,-1.86 5.57,-0.93 5.57,2.79 0,1.85 -0.93,5.57 -2.79,11.14 -9.28,22.27 -17.63,39.45 -25.07,51.52 -7.42,12.07 -13.92,17.17 -19.49,15.32 -3.72,0 -9.74,6.96 -18.09,20.88 -8.35,13.94 -12.53,25.54 -12.53,34.82l22.27 -5.57c18.57,-7.43 23.21,-13.01 13.93,-16.71 -14.86,-3.72 -16.71,-8.36 -5.58,-13.94 3.72,-1.86 9.29,-2.79 16.71,-2.79 14.86,1.87 29.71,-5.1 44.56,-20.88 14.86,-15.79 25.08,-33.88 30.64,-54.3 3.71,-20.42 11.14,-34.35 22.28,-41.77zm89.11 -155.95c5.57,-5.58 8.35,-11.14 8.35,-16.71 0,-5.58 -2.79,-6.5 -8.35,-2.79 -5.58,5.57 -8.35,12.07 -8.35,19.49 0,7.43 2.78,7.43 8.35,0zm-52.9 200.51l2.78 -2.78c3.71,-1.86 5.58,-3.72 5.58,-5.58l-8.35 -5.57c-5.59,0 -8.37,2.79 -8.37,8.35 0,5.57 2.79,7.43 8.37,5.57zm75.18 -136.45c14.86,-37.14 26.92,-62.21 36.2,-75.19 20.42,-18.57 32.49,-39 36.21,-61.27 0,-3.72 -0.93,-5.58 -2.79,-5.58 -13,-1.86 -13,-7.42 0,-16.71 1.86,-3.72 4.64,-5.57 8.35,-5.57 9.29,-1.87 26.93,-26.93 52.92,-75.2 25.99,-48.27 36.19,-76.12 30.62,-83.54 -1.85,-3.72 -7.42,0 -16.71,11.13 -13,27.86 -24.14,35.28 -33.42,22.29 -1.86,-7.43 -5.58,-8.36 -11.14,-2.8 -3.71,3.72 -1.85,7.43 5.57,11.15 7.43,1.85 6.5,7.42 -2.78,16.71 -9.28,12.99 -14.86,23.21 -16.71,30.63 -5.58,9.28 -13,16.72 -22.28,22.28 -9.28,3.71 -13.92,13.93 -13.92,30.63 -3.72,20.42 -9.29,31.56 -16.73,33.42 -7.41,0 -11.13,4.64 -11.13,13.93 0,7.41 -2.79,9.28 -8.35,5.57 -3.72,-3.72 -9.29,0 -16.71,11.14 -7.43,13 -10.22,19.5 -8.35,19.5 1.85,0 5.57,-1.87 11.13,-5.59 7.42,-3.71 11.6,-5.1 12.53,-4.18 0.94,0.93 -0.46,6.04 -4.18,15.33 -1.86,1.85 -4.18,6.02 -6.95,12.53 -2.79,6.5 -5.58,12.53 -8.35,18.09 -2.79,5.58 -5.12,10.22 -6.97,13.93 -9.27,14.86 -13.93,26.93 -13.93,36.21 0,7.42 -6.48,14.86 -19.49,22.27 -16.71,9.29 -22.27,33.43 -16.71,72.41 1.86,3.72 1.86,6.97 0,9.76 -1.86,2.78 -4.65,3.25 -8.35,1.39 -9.28,0 -13.93,2.79 -13.93,8.35 0,5.58 3.72,9.29 11.15,11.14 12.99,0 24.12,-8.35 33.41,-25.06 9.28,-18.57 23.21,-48.28 41.77,-89.12zm893.95 194.94l-50.13 11.14c1.85,0 7.42,0 16.71,0 27.86,0 42.71,2.78 44.56,8.35 3.72,9.28 19.49,9.28 47.35,0 20.42,-7.42 32.49,-9.28 36.2,-5.58 1.86,1.87 3.72,1.4 5.57,-1.39 1.87,-2.79 2.79,-6.03 2.79,-9.75 1.86,-9.28 -2.32,-14.38 -12.53,-15.31 -10.21,-0.94 -40.37,3.24 -90.51,12.53zm-122.53 11.14c0,3.71 0,5.57 0,5.57 11.14,1.86 18.57,0.93 22.27,-2.79 7.43,-9.27 2.79,-11.14 -13.92,-5.57 -1.85,0 -4.64,0.93 -8.35,2.79zm662.8 22.28c1.87,-1.86 0,-3.72 -5.57,-5.57 -9.29,-3.72 -23.21,-5.58 -41.77,-5.58 -31.57,-1.86 -43.62,-0.93 -36.21,2.79 0,0 1.86,0.92 5.58,2.79 44.56,12.99 70.55,14.86 77.97,5.57zm61.27 -33.42c0,-3.72 -1.39,-6.03 -4.18,-6.96 -2.79,-0.93 -10.68,-2.33 -23.67,-4.18 -13,-1.85 -30.16,-3.72 -51.52,-5.57 -21.36,-1.86 -53.38,-3.72 -96.08,-5.58 -102.11,-5.57 -155.96,-2.78 -161.53,8.35 0,5.58 13.92,12.99 41.77,22.28l44.55 8.35 -33.41 0c-29.7,0 -48.28,0.93 -55.7,2.79 -7.42,1.86 -12.07,1.4 -13.92,-1.4 -1.87,-2.78 -1.87,-7.88 0,-15.32 1.85,-9.28 0.92,-14.85 -2.79,-16.71 -3.72,-1.85 -12.07,-3.72 -25.07,-5.57 -18.56,-3.72 -30.63,-2.79 -36.2,2.79 -5.57,3.72 -18.57,3.72 -39,0 -18.55,-3.72 -28.77,0 -30.62,11.13 -1.87,7.43 -0.48,12.07 4.18,13.93 4.64,1.86 17.17,2.79 37.59,2.79 27.86,-3.71 41.77,-1.86 41.77,5.57 0,7.43 -12.07,9.28 -36.21,5.58 -24.13,0 -37.13,0.93 -38.98,2.79 -1.87,5.58 -9.29,8.35 -22.29,8.35 -7.42,-1.86 -26.91,-0.93 -58.47,2.79 -24.14,3.71 -40.84,3.71 -50.14,0 -1.86,-1.87 -3.72,-1.87 -5.57,0 -1.87,1.85 -2.79,3.71 -2.79,5.57 0,1.86 -0.93,3.25 -2.78,4.18 -1.87,0.94 -3.72,0.46 -5.59,-1.39 -11.14,-7.43 -69.62,-1.85 -175.44,16.71 -13,1.87 -32.49,4.65 -58.49,8.35 -25.99,3.72 -42.7,6.5 -50.13,8.35 -89.11,14.86 -133.67,26.93 -133.67,36.21 0,7.42 4.18,11.14 12.53,11.14 8.35,0 16.25,-3.72 23.67,-11.14 7.43,-11.14 21.35,-14.86 41.77,-11.14 22.28,0 33.42,-1.86 33.42,-5.57 0,-3.72 5.58,-5.57 16.72,-5.57 1.85,0 22.27,-1.87 61.27,-5.58 24.14,-5.58 97.01,-14.85 218.61,-27.86 121.61,-12.99 199.12,-20.42 232.54,-22.27 26,0 39,-2.79 39,-8.35 0,-5.58 -2.79,-8.36 -8.36,-8.36 -9.27,0 -10.21,-1.86 -2.79,-5.58 3.72,-3.71 9.28,-1.85 16.72,5.58 14.86,14.85 61.28,18.56 139.25,11.15 27.85,-3.72 41.77,-8.36 41.77,-13.94 -1.86,-3.71 0.92,-9.27 8.35,-16.71 9.27,-5.58 53.83,-3.72 133.67,5.57 22.28,0 34.35,-1.85 36.2,-5.57zm83.56 11.14l-16.72 -8.36c-3.71,-1.85 -7.42,-2.78 -11.14,-2.78 -24.13,-1.86 -35.28,0.93 -33.41,8.35 3.71,3.72 13.92,6.03 30.62,6.96 16.71,0.93 26.93,-0.47 30.64,-4.18zm66.83 50.13c3.71,0 5.58,-1.85 5.58,-5.57 0,-5.58 -12.07,-8.35 -36.21,-8.35l-38.99 -2.79 33.41 8.35c3.72,0 7.89,0.46 12.53,1.39 4.66,0.94 8.36,1.86 11.15,2.79 2.79,0.93 6.03,2.33 9.75,4.18l2.78 0zm222.79 50.13c26,18.57 39,26 39,22.28 0,0 -0.93,-1.86 -2.78,-5.58 -7.43,-12.99 -44.11,-33.88 -110.01,-62.66 -65.9,-28.77 -120.21,-46.88 -162.92,-54.3 -22.28,-3.71 -34.35,-4.65 -36.2,-2.79 -1.85,1.86 -0.93,4.65 2.79,8.35 5.57,9.28 21.35,13.94 47.34,13.94 22.28,1.85 58.49,12.07 108.61,30.62 50.14,18.57 88.19,35.28 114.18,50.13zm-512.41 501.28c11.13,0 13,-1.86 5.57,-5.57l-13.92 0c1.85,1.85 4.64,3.71 8.35,5.57zm-11.14 -22.27c-5.57,3.71 -7.42,5.57 -5.57,5.57 3.72,1.86 12.07,0 25.06,-5.57 11.13,-3.72 13,-6.5 5.57,-8.36 -9.27,0 -17.63,2.78 -25.06,8.36zm-150.38 80.76c12.99,-3.72 23.67,-8.35 32.02,-13.92 8.35,-5.59 11.61,-9.29 9.74,-11.15 -3.71,-1.86 -25.99,5.11 -66.83,20.89 -40.85,15.78 -61.28,25.52 -61.28,29.23 0,1.87 10.22,-0.93 30.64,-8.35 3.71,-1.85 12.53,-4.64 26.46,-8.35 13.92,-3.72 23.68,-6.5 29.24,-8.35zm38.98 -47.35c-9.28,5.58 -13.92,9.29 -13.92,11.14 7.42,0 16.71,-2.79 27.85,-8.35l13.93 -11.14c-1.86,0 -6.03,1.39 -12.54,4.18 -6.48,2.79 -11.6,4.18 -15.32,4.18zm-724.07 328.61c-3.72,-1.85 -17.63,4.66 -41.77,19.5 -24.14,14.85 -38.07,25.07 -41.78,30.63l39 -19.49c29.71,-16.72 44.56,-26.93 44.56,-30.64zm-128.1 80.78c0,-1.87 -2.79,-2.8 -8.35,-2.8 -5.58,0 -8.37,2.8 -8.37,8.36 0,5.57 2.8,6.48 8.37,2.79l8.35 -8.35zm5.57 13.92c-3.72,3.71 -10.68,8.81 -20.88,15.32 -10.22,6.49 -17.18,10.67 -20.89,12.53l-19.49 16.71 22.27 -5.58c16.71,0 28.77,-5.57 36.21,-16.71 9.29,-9.28 16.71,-13.92 22.28,-13.92 5.57,0 10.21,-1.87 13.92,-5.57 5.57,-5.58 20.42,-13.01 44.56,-22.29 27.86,-14.84 44.56,-26.91 50.14,-36.2 3.72,-9.28 8.35,-13.92 13.92,-13.92 3.72,0 3.72,2.78 0,8.35 -3.72,5.57 0.93,4.64 13.92,-2.79 26,-11.14 51.07,-25.99 75.19,-44.56 53.84,-40.84 91.91,-63.11 114.18,-66.83 20.42,-3.72 37.15,-12.07 50.14,-25.07 20.42,-18.56 30.63,-23.2 30.63,-13.93 0,1.86 -0.93,3.72 -2.78,5.57 0,3.72 0.92,6.5 2.78,8.36 5.58,0 8.36,-4.65 8.36,-13.93 0,-5.58 10.2,-12.07 30.62,-19.49 18.57,-7.42 30.64,-13 36.21,-16.71 5.57,-5.57 14.86,-11.14 27.85,-16.72 13,-9.27 18.57,-16.71 16.71,-22.28 -1.85,-1.85 -1.85,-3.72 0,-5.57 1.87,-1.85 3.72,-1.85 5.59,0 5.57,0 8.35,2.79 8.35,8.35 1.85,5.57 16.71,1.87 44.54,-11.14 29.71,-14.86 48.28,-20.42 55.7,-16.71 5.58,0 8.35,-0.93 8.35,-2.79 -3.71,-5.57 -0.92,-10.21 8.37,-13.93 5.57,-3.71 10.2,-8.35 13.92,-13.93 0,-5.57 21.34,-17.63 64.05,-36.19l61.27 -27.86c-1.87,-3.71 -41.31,10.21 -118.36,41.77 -77.06,31.56 -152.71,64.51 -226.98,98.85 -74.26,34.36 -110.46,53.39 -108.6,57.09 1.85,1.87 0,5.12 -5.59,9.76 -5.57,4.64 -12.06,8.35 -19.49,11.14 -7.41,2.78 -12.99,3.25 -16.71,1.39 -5.57,-3.72 -17.63,-0.93 -36.21,8.35 -18.55,9.29 -27.85,16.71 -27.85,22.28 0,5.57 -3.72,8.35 -11.13,8.35 -7.43,0 -19.5,6.49 -36.21,19.5 -33.42,29.69 -103.04,73.33 -208.87,130.89zm-72.41 16.71c-11.14,7.42 -16.72,12.07 -16.72,13.92 5.58,0 11.15,-1.85 16.72,-5.57 11.14,-3.72 16.71,-7.42 16.71,-11.14 -1.85,-1.85 -3.72,-2.32 -5.57,-1.39 -1.86,0.93 -5.58,2.33 -11.14,4.18zm-30.64 50.14c-18.55,12.99 -23.2,19.48 -13.92,19.48 7.42,0 18.57,-5.57 33.42,-16.71 11.14,-11.14 15.78,-17.63 13.93,-19.49l-33.43 16.72zm-233.92 161.51c-22.29,20.42 -29.71,30.64 -22.29,30.64 11.14,0 19.49,-2.79 25.07,-8.35 5.58,-7.43 7.42,-11.14 5.58,-11.14 -3.72,-1.86 -0.94,-7.43 8.35,-16.72 16.71,-16.71 25.06,-20.42 25.06,-11.14 0,1.86 -0.93,4.64 -2.79,8.35 -1.85,3.72 -1.85,4.66 0,2.79l8.35 -5.57c9.29,-7.42 13.01,-12.07 11.14,-13.93 -1.85,-5.57 0.93,-11.13 8.36,-16.71 7.42,-5.57 16.71,-9.28 27.85,-11.15 7.42,0 17.18,-3.71 29.23,-11.13 12.07,-7.42 22.29,-15.32 30.64,-23.67 8.35,-8.35 10.68,-13.47 6.96,-15.32 -1.86,-1.87 -3.72,-2.33 -5.58,-1.39 -1.85,0.92 -2.79,2.31 -2.79,4.18 0,3.7 -0.46,6.02 -1.39,6.95 -0.93,0.94 -2.32,0.46 -4.18,-1.39 -7.43,-7.43 -56.63,24.14 -147.59,94.68zm-208.88 136.46c-24.14,18.57 -38.07,33.42 -41.76,44.56l36.19 -30.62 22.28 -22.29c0,0 -5.57,2.79 -16.71,8.35zm161.53 -91.9c0,-3.72 -23.21,13.01 -69.62,50.14 -46.42,37.13 -92.37,75.64 -137.87,115.58 -45.48,39.91 -68.22,61.73 -68.22,65.44 0,1.85 3.26,0 9.75,-5.58 6.49,-5.57 15.78,-13 27.85,-22.28 12.07,-9.29 24.6,-19.49 37.6,-30.63 48.27,-44.56 76.11,-66.83 83.55,-66.83 9.28,-1.87 31.56,-18.57 66.83,-50.14 35.28,-31.56 51.98,-50.13 50.14,-55.7zm-300.78 253.43l-8.35 11.14 16.71 -11.14c7.43,-7.42 9.29,-11.14 5.58,-11.14 -1.86,0 -6.5,3.72 -13.93,11.14zm-38.99 41.78c-9.27,9.28 -12.99,13.92 -11.14,13.92 3.72,0 10.22,-4.64 19.5,-13.92 11.14,-11.14 14.84,-16.73 11.14,-16.73 -1.87,0 -8.35,5.59 -19.5,16.73zm-38.99 41.76c-7.43,7.43 -9.28,11.15 -5.57,11.15 1.85,0 6.48,-3.72 13.92,-11.15 5.58,-9.27 7.42,-13.93 5.58,-13.93 -5.58,3.72 -10.21,8.35 -13.93,13.93zm-136.46 1016.48c5.58,3.72 12.06,5.59 19.49,5.59 0,-1.87 -3.72,-4.65 -11.13,-8.36 -5.58,0 -8.36,0.93 -8.36,2.78zm144.81 61.27l13.93 0c0,-1.85 -1.86,-2.78 -5.58,-2.78 -16.71,-5.58 -29.7,-10.21 -38.99,-13.93 -14.85,-3.72 -24.13,-3.72 -27.85,0 0,7.43 19.48,13.01 58.48,16.71zm66.84 22.29c9.28,1.85 14.39,2.31 15.31,1.39 0.94,-0.93 -2.31,-5.11 -9.74,-12.53 -20.42,-14.85 -32.49,-17.63 -36.21,-8.36 0,13 10.22,19.5 30.64,19.5zm222.79 2.79c13,0 19.5,-4.66 19.5,-13.93 -3.72,-9.28 -20.42,-9.28 -50.14,0 -5.57,1.86 -13,2.79 -22.27,2.79 -1.87,0 -8.35,1.85 -19.5,5.57 -1.85,1.86 -12.07,4.64 -30.63,8.35l-2.78 0 0 0 0 0 2.78 0 2.79 0 2.79 0 25.06 0c40.84,0 64.98,-0.93 72.41,-2.78zm133.68 -25.08l47.34 -11.13 -41.77 2.78c-29.7,0 -45.49,2.79 -47.34,8.35 -7.43,1.87 -12.07,0 -13.93,-5.57 0,-7.42 -4.65,-6.48 -13.93,2.79 -9.27,9.28 -17.63,13.93 -25.06,13.93 -7.42,3.71 -6.5,5.58 2.78,5.58l91.91 -16.73zm97.46 -22.27c11.14,-3.72 16.71,-6.5 16.71,-8.35 0,-1.85 -4.18,-3.25 -12.53,-4.18 -8.35,-0.93 -16.71,-0.47 -25.06,1.39 -8.35,1.86 -12.53,4.64 -12.53,8.35 -3.72,3.72 -2.33,5.58 4.18,5.58 6.48,0 16.25,-0.94 29.23,-2.79zm194.94 -61.27c11.14,-3.72 16.71,-9.29 16.71,-16.71 0,-3.72 -2.78,-3.72 -8.35,0 -5.57,5.57 -14.85,8.35 -27.84,8.35 -13.01,0 -20.43,0.93 -22.28,2.78 -1.87,1.86 -4.65,3.72 -8.36,5.58l-2.79 2.78c-12.99,0 -28.77,3.25 -47.33,9.75 -18.57,6.5 -27.86,11.61 -27.86,15.33 0,12.99 26.92,8.35 80.75,-13.94l33.43 -11.14 13.92 -2.78zm153.18 -72.41c3.71,3.72 12.53,1.85 26.46,-5.57 13.92,-7.43 21.81,-14.86 23.67,-22.29 0,-7.42 -1.86,-11.14 -5.58,-11.14 -3.71,0 -19.49,7.43 -47.33,22.29 -31.57,14.86 -52.92,25.99 -64.05,33.41 -11.15,7.43 -15.79,13 -13.94,16.71 3.72,5.59 13,4.65 27.86,-2.79 12.99,-3.7 19.49,-9.27 19.49,-16.71 -1.85,-3.72 -0.46,-7.41 4.18,-11.13 4.65,-3.72 9.74,-5.58 15.32,-5.58 5.58,0 10.21,0.94 13.93,2.79zm72.41 -27.86c0,-7.42 -0.93,-13.92 -2.79,-19.49l-8.35 -8.35c0,1.85 -1.86,8.35 -5.57,19.49 -1.87,7.43 -0.47,12.07 4.18,13.94 4.64,1.85 8.81,0 12.53,-5.59zm297.98 -178.22c29.7,-27.86 41.77,-42.71 36.21,-44.56 -3.72,0 -11.14,3.72 -22.28,11.14 -14.85,9.28 -24.14,13.92 -27.86,13.92 -1.85,0 -26.91,14.86 -75.18,44.56 -1.86,0 -7.89,3.72 -18.1,11.14 -10.21,7.43 -19.02,13 -26.46,16.71 -24.13,13 -34.35,23.22 -30.63,30.64 1.86,3.72 0.94,5.57 -2.78,5.57 -5.58,-3.72 -16.72,-0.93 -33.43,8.35 -16.71,9.28 -25.06,17.63 -25.06,25.07 -1.85,11.14 -12.07,13.93 -30.64,8.35 -9.27,0 -14.84,2.79 -16.71,8.35 -7.41,12.99 -9.28,21.36 -5.57,25.07 3.72,0 5.57,-3.71 5.57,-11.14l0 -2.79c3.72,-11.14 7.43,-12.99 11.14,-5.57 1.87,3.72 17.63,-1.4 47.35,-15.32 29.7,-13.94 59.88,-29.7 90.51,-47.35 30.63,-17.63 46.88,-29.24 48.73,-34.81 1.87,-3.71 3.72,-6.96 5.58,-9.75 1.86,-2.79 3.72,-3.25 5.57,-1.39 13,1.86 34.36,-10.21 64.05,-36.2zm89.12 -58.48l13.92 -11.14c0,-9.29 -4.64,-9.29 -13.92,0l-5.57 8.35c-3.72,3.71 -4.66,6.02 -2.79,6.96 1.85,0.92 4.64,-0.48 8.35,-4.18zm158.73 -125.32c5.57,-3.72 6.5,-7.43 2.79,-11.14 0,-1.87 -1.86,-1.87 -5.58,0 -3.7,1.85 -8.35,4.64 -13.92,8.35 -5.57,3.71 -11.14,7.42 -16.71,11.14 -29.7,20.42 -51.98,35.27 -66.84,44.56 -20.42,14.84 -34.34,26.91 -41.77,36.19 -7.42,11.14 -6.5,15.79 2.79,13.93 13,0 31.55,-8.35 55.69,-25.06 26,-22.28 44.57,-39 55.7,-50.14 3.72,-3.72 7.42,-7.89 11.14,-12.53 3.72,-4.64 7.43,-7.89 11.14,-9.74l5.57 -5.57zm378.75 -317.48c27.86,-27.86 39.93,-43.63 36.21,-47.35l-8.35 2.79c-3.72,3.72 -9.29,8.35 -16.71,13.92 -7.43,5.58 -14.86,12.07 -22.29,19.5 -170.8,150.38 -272.91,239.49 -306.34,267.35 -35.28,26 -47.33,38.99 -36.2,38.99 5.58,1.86 51.98,-33.41 139.25,-105.82 111.39,-92.83 182.87,-155.96 214.43,-189.37zm130.89 -133.67c24.14,-29.7 32.49,-43.63 25.08,-41.78 -1.87,1.86 -6.5,5.58 -13.93,11.14 -11.15,7.43 -29.24,26 -54.3,55.7 -25.08,29.7 -37.61,46.41 -37.61,50.13 0,1.86 5.12,-1.86 15.32,-11.13 10.22,-9.29 32.03,-30.64 65.44,-64.05zm105.83 -122.53c13.01,-13.01 17.64,-20.42 13.93,-22.29 0,0 -2.79,1.87 -8.35,5.57 -7.42,3.72 -17.17,13.01 -29.23,27.86 -12.07,14.86 -18.11,24.14 -18.11,27.85 0,7.43 3.72,5.57 11.15,-5.57 3.71,-5.58 13.92,-16.71 30.62,-33.41zm58.49 -75.19c11.14,-16.72 16.71,-26.93 16.71,-30.64l-30.62 39 -16.72 30.63c9.28,-9.29 19.49,-22.28 30.63,-38.99z"/>
    <path class="fil0" d="M5350.85 2155.75c16.71,0 13.92,10.22 -8.36,30.64 -16.71,12.99 -26.92,28.77 -30.63,47.34 0,16.72 -3.72,25.07 -11.13,25.07 -5.58,0 -8.35,2.79 -8.35,8.35 0,7.42 -26,39 -77.99,94.68 -53.83,57.57 -80.76,89.12 -80.76,94.7 0,7.42 -22.75,32.95 -68.23,76.58 -45.48,43.63 -70.08,63.59 -73.8,59.88 -1.85,-1.86 -3.72,-1.86 -5.57,0 -1.87,1.85 -2.79,4.64 -2.79,8.35 0,16.71 -37.6,52.45 -112.79,107.22 -75.18,54.77 -141.57,94.22 -199.12,118.37 -105.83,46.41 -194.94,53.83 -267.35,22.27 -16.73,-7.42 -33.89,-19.03 -51.53,-34.81 -17.63,-15.79 -27.39,-29.24 -29.24,-40.38 0,-5.57 -7.42,-15.79 -22.28,-30.63 -33.42,-27.85 -50.13,-74.27 -50.13,-139.25 0,-74.26 10.21,-128.1 30.63,-161.52l11.14 -27.86c7.42,-18.55 12.99,-34.34 16.71,-47.34 48.28,-137.38 99.33,-257.14 153.18,-359.25l38.99 -75.19 -27.85 19.49c-20.42,12.99 -40.84,33.41 -61.27,61.27 -18.57,31.56 -37.15,48.27 -55.7,50.14 -20.42,5.57 -57.55,35.27 -111.4,89.11 -53.83,53.84 -85.41,80.76 -94.68,80.76 -7.43,0 -11.15,4.65 -11.15,13.93 0,14.86 -7.42,29.69 -22.27,44.55 -5.58,5.57 -8.35,5.57 -8.35,0l-16.71 19.5c-3.72,7.42 -27.86,38.99 -72.41,94.68 -29.71,35.28 -80.77,100.26 -153.18,194.95 -63.12,81.69 -104.9,134.6 -125.32,158.74 -20.42,24.13 -48.27,50.12 -83.55,77.97 -35.28,31.56 -60.81,50.6 -76.58,57.09 -15.79,6.5 -32.03,4.18 -48.74,-6.95 -18.57,-9.29 -31.56,-17.64 -39,-25.08 -5.57,-9.27 -11.13,-13.92 -16.71,-13.92 -5.57,0 -9.28,-5.11 -11.13,-15.32 -1.87,-10.21 -0.94,-17.18 2.78,-20.88 7.42,-3.72 6.5,-8.36 -2.78,-13.93 -50.14,-38.99 -51.07,-107.69 -2.79,-206.08 20.42,-39 32.49,-58.49 36.2,-58.49 7.43,0 7.43,7.43 0,22.28 -1.86,5.58 -7.42,17.63 -16.71,36.21 -35.28,76.11 -45.49,125.32 -30.63,147.59 5.57,7.43 8.35,6.5 8.35,-2.79 0,-5.57 5.58,-23.2 16.71,-52.9 12.99,-22.28 17.64,-40.84 13.93,-55.69 -5.58,-13.01 5.57,-37.15 33.42,-72.42 29.7,-44.55 39.92,-64.97 30.62,-61.26 -1.85,1.85 -5.57,4.64 -11.13,8.35 -9.29,5.57 -13.93,5.57 -13.93,0 0,-5.58 2.79,-8.35 8.35,-8.35 1.86,0 10.21,-11.15 25.07,-33.43 9.28,-22.27 21.35,-42.69 36.21,-61.27 29.7,-37.13 56.61,-75.19 80.75,-114.18 63.12,-100.25 104.9,-157.81 125.33,-172.67 7.42,-7.42 11.13,-14.85 11.13,-22.27 0,-9.29 14.86,-33.42 44.56,-72.41 31.56,-35.28 47.35,-56.63 47.35,-64.05 -1.87,-7.42 50.14,-71.48 155.95,-192.16 53.84,-55.7 87.25,-86.32 100.25,-91.91 11.14,0 28.78,-10.2 52.92,-30.62 40.84,-39 87.25,-51.98 139.24,-39 29.7,7.43 47.35,14.86 52.91,22.29 11.14,11.14 24.13,20.42 38.99,27.85 20.42,18.56 37.14,40.84 50.13,66.83 16.71,29.71 28.77,47.35 36.21,52.91 3.71,1.86 12.99,10.22 27.85,25.06 13,13.01 23.21,19.5 30.64,19.5 7.41,0 15.31,10.68 23.66,32.02 8.35,21.36 12.53,42.24 12.53,62.67 0,22.28 -9.28,63.12 -27.84,122.53 -14.86,37.13 -33.43,89.12 -55.7,155.96 -7.43,22.27 -33.43,91.89 -77.97,208.86 -55.7,137.39 -83.56,237.64 -83.56,300.78 0,24.13 0.93,38.52 2.78,43.15 1.87,4.66 7.43,7.89 16.73,9.76 33.41,9.27 79.82,0 139.24,-27.86 120.67,-53.83 253.43,-142.96 398.24,-267.35 42.69,-40.84 67.76,-57.55 75.18,-50.14 1.87,1.86 10.22,-3.24 25.08,-15.31 14.85,-12.07 35.27,-30.17 61.27,-54.31 51.98,-53.84 79.82,-76.12 83.54,-66.83 5.58,7.41 1.86,17.63 -11.13,30.62 -11.14,11.15 -16.71,19.5 -16.71,25.07 1.85,0 19.48,-14.85 52.89,-44.56 27.86,-31.55 49.21,-49.2 64.05,-52.91 13.01,-3.7 20.42,-9.28 22.29,-16.71 1.85,-11.14 9.74,-23.21 23.67,-36.21 13.92,-12.99 23.66,-19.49 29.24,-19.49zm-1623.6 116.97c-3.72,0 -5.57,2.79 -5.57,8.35 0,13.01 6.5,10.22 19.49,-8.35 7.43,-11.13 8.35,-17.63 2.78,-19.48 -5.57,-1.87 -8.35,0.92 -8.35,8.35 0,7.41 -2.78,11.13 -8.35,11.13zm359.26 -33.42c7.42,9.28 12.06,10.22 13.93,2.8 1.85,-3.72 1.85,-9.28 0,-16.72 -1.87,-11.14 -6.5,-13 -13.93,-5.58 -7.43,3.72 -7.43,10.22 0,19.49zm142.03 -194.94l-75.18 72.42c-26,27.85 -51.53,55.22 -76.59,82.15 -25.06,26.93 -45.03,48.74 -59.88,65.44 -14.85,16.71 -21.34,25.06 -19.49,25.06l13.92 -11.13c7.43,-9.29 19.96,-23.21 37.61,-41.78 17.63,-18.55 32.95,-35.26 45.95,-50.12 63.12,-68.7 99.33,-103.05 108.61,-103.05 7.43,-1.85 11.15,-4.64 11.15,-8.35 0,-7.43 4.64,-17.63 13.92,-30.63zm100.25 -222.79c20.42,-53.85 30.64,-81.69 30.64,-83.55 -1.86,-1.86 -24.14,14.39 -66.84,48.73 -42.69,34.36 -68.7,57.09 -77.97,68.23 -14.86,16.72 -23.21,20.42 -25.07,11.15 0,-1.87 0.93,-4.65 2.78,-8.36 1.87,-3.71 2.33,-6.49 1.4,-8.35 -0.92,-1.86 -3.25,-1.86 -6.96,0 -5.57,3.72 -8.35,10.21 -8.35,19.5 0,12.99 -41.78,64.96 -125.32,155.94 -31.56,31.56 -73.34,82.63 -125.32,153.18 -11.14,14.84 -24.14,31.56 -39,50.12 -14.84,18.57 -25.99,33.43 -33.41,44.56 -7.43,11.14 -12.07,17.64 -13.92,19.49 -13.01,14.86 -43.17,62.21 -90.52,142.04 -47.34,79.83 -71.02,124.39 -71.02,133.67 0,11.14 29.71,-17.63 89.13,-86.33 1.85,-3.71 3.7,-6.48 5.57,-8.35 105.82,-128.11 165.24,-192.16 178.22,-192.16 3.72,0 5.59,3.72 5.59,11.14l2.78 2.79c0,-1.86 0.92,-4.64 2.79,-8.35 7.42,-9.29 7.42,-17.64 0,-25.06 -3.72,-5.58 20.42,-37.13 72.41,-94.7 35.28,-38.98 58.48,-63.11 69.62,-72.41 11.14,-9.28 21.35,-12.99 30.62,-11.14 9.29,1.86 14.4,1.86 15.33,0 0.92,-1.85 -0.47,-5.57 -4.18,-11.13 -9.28,-7.43 12.99,-38.07 66.84,-91.91 53.83,-55.69 91.9,-108.61 114.17,-158.73zm2013.48 222.79c14.86,-14.86 26.47,-26 34.82,-33.41 8.35,-7.43 15.32,-13.01 20.88,-16.71 5.57,-3.72 8.35,-2.79 8.35,2.78 0,5.58 -0.46,12.99 -1.39,22.28 -0.92,9.28 -4.18,23.2 -9.75,41.77 -11.13,35.28 -34.34,73.33 -69.62,114.17 -33.42,39 -60.34,64.52 -80.76,76.59 -20.42,12.07 -48.28,19.95 -83.56,23.67 -37.13,1.85 -61.27,0 -72.4,-5.57 -5.58,-3.72 -17.64,-10.22 -36.2,-19.49 -22.29,-9.28 -51.99,-39.93 -89.12,-91.91 -37.14,-51.98 -60.34,-95.62 -69.63,-130.89 -7.41,-31.56 -12.99,-74.27 -16.71,-128.11 -3.72,-53.83 -7.43,-85.41 -11.13,-94.68 -5.58,-5.58 -15.79,-3.72 -30.64,5.57 -14.86,7.42 -21.34,13.92 -19.49,19.49 1.85,3.72 0.93,4.64 -2.79,2.78 -3.72,-1.85 -9.28,-0.46 -16.71,4.18 -7.43,4.66 -13.46,10.68 -18.1,18.1 -4.64,7.43 -5.1,12.07 -1.4,13.94l-2.78 2.78c-14.86,-3.72 -47.34,26 -97.46,89.11 -9.29,13 -16.73,19.49 -22.29,19.49 -5.57,1.87 -12.53,7.43 -20.88,16.72 -8.35,9.27 -13.46,17.64 -15.32,25.06 0,7.42 -4.65,13.93 -13.92,19.49 -9.29,3.72 -13.94,10.22 -13.94,19.5 1.87,5.57 -0.92,13.92 -8.35,25.06 -18.55,20.42 -51.05,70.56 -97.46,150.38 -35.28,55.7 -53.84,87.26 -55.7,94.7 -5.57,5.57 -12.07,19.49 -19.5,41.77 -25.99,66.84 -54.76,126.24 -86.32,178.22l-58.48 100.26c-1.86,7.42 -18.56,37.13 -50.14,89.11 -20.42,31.57 -38.06,63.13 -52.9,94.7 -9.28,20.42 -24.6,42.23 -45.95,65.44 -21.36,23.2 -35.74,34.8 -43.17,34.8 -11.14,0 -18.55,-0.92 -22.27,-2.78 -7.43,0 -13.01,-3.71 -16.71,-11.14 -1.87,-5.58 -9.29,-10.21 -22.29,-13.93 -11.14,-3.72 -18.56,-8.35 -22.28,-13.92 -3.72,-13 -11.13,-25.99 -22.28,-39l-13.93 -27.84 13.93 -64.05c22.28,-109.55 76.12,-263.65 161.53,-462.31l50.13 -122.52c3.72,-9.28 12.07,-29.24 25.06,-59.88 13.01,-30.63 22.29,-52.45 27.86,-65.44l58.49 -139.26c33.41,-74.26 65.9,-140.17 97.46,-197.73l55.7 -108.61c18.56,-40.83 32.49,-64.05 41.77,-69.63 7.42,-11.13 11.14,-18.55 11.14,-22.27 0,-5.57 4.64,-8.35 13.92,-8.35 37.13,-7.43 58.95,-10.68 65.44,-9.74 6.5,0.92 12.53,5.1 18.1,12.53 9.28,9.28 16.72,13.92 22.28,13.92 16.72,0 16.72,16.71 0,50.13 -5.57,11.14 -8.35,21.36 -8.35,30.63 0,7.43 -10.21,27.86 -30.63,61.27 -57.55,98.41 -95.62,177.32 -114.19,236.72 -14.85,42.69 -39.91,104.9 -75.18,186.59 -46.42,113.25 -67.77,169.88 -64.05,169.88l30.64 -44.56c20.42,-29.71 32.48,-44.56 36.2,-44.56 1.86,1.86 0.93,7.43 -2.79,16.72 -3.72,9.27 -7.42,15.78 -11.14,19.49 -33.42,50.13 -62.2,99.32 -86.32,147.59l-8.36 27.86c5.58,-3.72 25.07,-34.34 58.48,-91.91 7.43,-11.13 24.14,-37.13 50.14,-77.97 25.99,-40.84 43.62,-67.77 52.91,-80.76 31.55,-48.28 80.76,-113.25 147.59,-194.94 66.84,-81.69 114.18,-134.6 142.04,-158.74 29.7,-26 42.7,-38.99 38.99,-38.99 -3.72,0 -18.55,10.21 -44.55,30.63 -26.01,20.42 -44.56,36.21 -55.7,47.34 -70.55,70.56 -146.67,166.18 -228.36,286.84 -24.14,39 -39.92,59.42 -47.35,61.27 -1.85,0 -0.92,-4.64 2.79,-13.92 5.57,-12.99 35.27,-55.23 89.12,-126.71 53.83,-71.48 97.46,-126.72 130.89,-165.71 63.12,-74.27 115.11,-120.67 155.95,-139.25 18.56,-9.28 44.1,-10.2 76.58,-2.79 32.49,7.43 52.45,17.64 59.87,30.64 7.43,12.99 13.94,20.42 19.5,22.28 27.85,16.71 48.27,49.2 61.28,97.47 11.13,35.26 20.42,83.54 27.84,144.81 18.57,103.96 37.13,161.51 55.7,172.66 5.57,3.71 21.35,3.71 47.35,0 25.99,-1.86 61.27,-17.63 105.82,-47.34 35.28,-24.14 73.34,-54.77 114.18,-91.91zm-1083.33 97.47c-7.42,11.14 -10.2,17.63 -8.35,19.49l0 2.78 11.14 -16.71c3.72,-7.41 5.57,-11.13 5.57,-11.13 0,0 -2.78,1.85 -8.35,5.57zm-211.65 618.25c3.71,-7.43 5.11,-11.14 4.18,-11.14 -0.93,0 -3.26,1.86 -6.96,5.58 -7.43,7.41 -11.13,13.92 -11.13,19.48l2.78 2.79 11.14 -16.71zm167.08 -456.73c7.43,-11.14 19.03,-34.81 34.82,-71.02 15.79,-36.2 22.75,-55.22 20.88,-57.09 0,-1.85 -4.64,-2.79 -13.92,-2.79 -7.42,0 -13.93,7.43 -19.49,22.29l-5.58 19.49c3.71,0 1.86,5.57 -5.57,16.71 -5.59,7.43 -15.79,28.32 -30.64,62.66 -14.85,34.36 -22.27,54.31 -22.27,59.88 1.85,1.87 4.64,0.94 8.35,-2.78 3.72,-1.86 5.57,-0.92 5.57,2.78 -3.72,7.43 -7.41,9.29 -11.13,5.58 -3.72,0 -7.43,2.78 -11.14,8.35 -11.15,33.42 -23.21,64.06 -36.21,91.91 -37.13,87.25 -50.14,127.17 -39,119.75 1.87,-1.86 3.26,-1.86 4.18,0 0.93,1.86 0.47,3.72 -1.39,5.58 -3.71,5.57 -7.42,8.35 -11.14,8.35l0 2.78c5.57,9.29 4.65,18.57 -2.79,27.86 -1.85,3.71 -3.7,4.64 -5.57,2.79 -1.85,0 -1.85,2.79 0,8.35 3.72,7.42 0.93,11.14 -8.35,11.14 -5.57,0 -7.42,3.72 -5.57,11.13 3.72,7.43 1.85,19.49 -5.58,36.21 -14.85,31.56 -13.92,35.28 2.79,11.14 12.99,-25.99 30.62,-69.62 52.91,-130.89 22.28,-61.27 38.07,-101.19 47.34,-119.76 5.58,-5.57 12.07,-22.27 19.5,-50.13 7.41,-29.71 13.92,-44.56 19.48,-44.56 3.72,-7.42 5.58,-13.93 5.58,-19.49 0,-9.28 4.65,-21.35 13.92,-36.21zm61.27 -186.58c0,-5.59 -1.85,-7.43 -5.57,-5.59 -3.71,3.72 -5.57,7.43 -5.57,11.15 1.86,9.27 5.57,7.42 11.13,-5.57z"/>
    <path class="fil0" d="M7074.71 3058.06c-9.29,3.72 -13.93,2.78 -13.93,-2.79 0,-5.57 7.89,-15.32 23.67,-29.23 15.79,-13.93 26.47,-20.88 32.03,-20.88 1.85,0 2.79,2.31 2.79,6.95 0,4.64 -1.86,10.68 -5.58,18.1 -11.13,14.85 -17.63,22.27 -19.48,22.27 -5.59,0 -12.07,1.87 -19.5,5.58zm899.52 -785.34c50.14,35.28 69.64,73.35 58.49,114.19 -3.71,22.27 -17.64,38.98 -41.77,50.13 -24.14,11.14 -38.99,14.85 -44.56,11.14 -5.57,-1.87 -8.35,-23.21 -8.35,-64.05 0,-37.13 -5.57,-59.42 -16.71,-66.84 -20.42,-11.13 -62.2,-10.21 -125.32,2.79 -63.13,12.99 -125.32,33.41 -186.59,61.27 -81.69,37.13 -122.53,63.12 -122.53,77.98 0,33.41 -39,129.96 -116.97,289.63 -29.71,63.12 -72.41,142.03 -128.11,236.71 -55.7,94.69 -98.39,161.53 -128.11,200.51 -20.42,31.57 -59.42,80.77 -116.97,147.61 -120.68,146.66 -227.43,239.5 -320.26,278.49 -70.55,31.56 -138.32,37.13 -203.29,16.71 -61.27,-16.71 -100.26,-40.84 -116.97,-72.41 -11.14,-16.71 -26,-34.35 -44.56,-52.91 -22.28,-22.28 -31.56,-42.7 -27.85,-61.27 3.71,-16.71 1.85,-28.77 -5.57,-36.2 -7.43,-9.29 -7.43,-16.71 0,-22.28 5.57,-9.28 4.64,-18.56 -2.79,-27.86 -20.42,-24.14 -20.42,-47.34 0,-69.62 5.57,-7.42 8.35,-9.28 8.35,-5.57 0,1.85 -0.93,10.2 -2.79,25.06 -1.86,18.57 -1.86,27.86 0,27.86 1.86,0 4.64,-1.87 8.35,-5.57 7.42,-7.43 11.14,-17.64 11.14,-30.64 0,-11.14 2.79,-16.71 8.35,-16.71 9.28,0 12.07,15.79 8.35,47.35 -1.85,20.42 0,31.55 5.57,33.41 5.58,0 17.64,-12.07 36.22,-36.2 63.11,-90.98 168.01,-211.67 314.69,-362.04 215.37,-217.23 401.96,-378.74 559.77,-484.58 50.13,-33.41 79.37,-57.55 87.72,-72.41 8.35,-14.85 22.74,-63.11 43.16,-144.8 35.28,-137.39 40.84,-216.3 16.71,-236.72 -7.41,-7.42 -11.13,-14.86 -11.13,-22.27 0,-24.14 -7.43,-47.35 -22.28,-69.63 -14.85,-22.28 -29.7,-33.42 -44.56,-33.42 -48.28,0 -123.46,40.84 -225.58,122.53 -40.84,31.56 -85.4,73.81 -133.67,126.72 -48.27,52.91 -72.41,84.94 -72.41,96.09 0,3.7 -3.72,11.13 -11.13,22.27 -7.43,11.14 -15.32,20.88 -23.68,29.23 -8.35,8.36 -13.46,11.61 -15.32,9.76 -1.86,1.85 -2.79,3.7 -2.79,5.57 0,5.57 -22.27,40.84 -66.83,105.82 -198.67,285.92 -301.7,500.36 -309.13,643.31 -3.71,27.86 -8.35,48.28 -13.92,61.27 -5.58,13.01 -13.01,17.64 -22.28,13.94 -9.28,0 -14.85,2.79 -16.72,8.35 -12.99,14.86 -41.76,2.79 -86.32,-36.21l-39 -36.2 -5.57 -89.12c-1.86,-68.69 0.93,-125.32 8.35,-169.87 27.86,-172.67 74.27,-375.04 139.25,-607.11 14.86,-48.27 22.28,-86.32 22.28,-114.18 0,-18.56 4.64,-34.35 13.92,-47.35 7.43,-7.42 18.57,-32.48 33.43,-75.19 22.27,-76.12 54.76,-168.01 97.46,-275.7 42.7,-107.69 75.18,-182.87 97.47,-225.58l77.97 -150.38c55.7,-109.53 112.33,-206.08 169.88,-289.64 85.4,-126.24 158.73,-226.5 220,-300.76 1.87,-3.72 10.22,-13.94 25.08,-30.64 14.85,-16.71 26.91,-30.62 36.2,-41.77 92.83,-111.38 181.47,-211.19 265.95,-299.37 84.48,-88.19 134.15,-132.28 149,-132.28 26,0 38.99,-5.57 38.99,-16.72 0,-5.57 -3.71,-8.35 -11.14,-8.35 -27.85,0 -17.63,-14.86 30.64,-44.55 5.57,-1.87 11.14,-4.65 16.71,-8.36 55.7,-31.56 109.53,-47.34 161.52,-47.34 26,-1.86 50.13,7.42 72.42,27.85 25.99,20.42 43.15,39.46 51.51,57.09 8.37,17.64 10.68,42.24 6.97,73.8 -7.43,85.42 -64.04,219.09 -169.88,401.03 -105.83,180.09 -280.35,431.65 -523.55,754.7 -256.22,343.49 -457.66,574.63 -604.33,693.45 -35.28,24.14 -52.91,42.71 -52.91,55.7 0,3.72 -1.85,10.67 -5.57,20.89 -3.72,10.2 -8.35,23.67 -13.93,40.37 -5.57,16.71 -10.21,31.56 -13.92,44.56l-25.07 89.11c3.71,0 16.72,-17.63 38.99,-52.91 35.28,-50.12 70.56,-93.75 105.84,-130.9 16.71,-22.27 30.62,-39.91 41.76,-52.89 57.55,-76.12 123,-141.57 196.33,-196.35 73.34,-54.77 141.57,-89.57 204.7,-104.43 25.99,-5.57 62.19,-6.04 108.61,-1.39 46.41,4.64 77.05,12.53 91.91,23.66 14.85,11.14 31.55,21.36 50.13,30.64 46.42,22.28 82.61,64.97 108.61,128.11 11.14,25.99 17.63,80.76 19.5,164.3l0 119.76 50.12 -19.49c159.68,-57.55 287.78,-54.76 384.31,8.35zm-414.94 -1801.82c-26,33.41 -69.63,83.54 -130.9,150.38 -70.55,74.26 -169.88,199.58 -297.99,375.96 -50.13,72.41 -73.34,108.62 -69.62,108.62 5.58,-3.72 8.35,-3.72 8.35,0 0,7.41 -9.28,24.13 -27.85,50.12 -18.56,24.14 -46.41,72.42 -83.55,144.82 -37.14,72.41 -55.7,114.17 -55.7,125.32 0,9.27 -3.71,19.49 -11.14,30.62 -18.55,22.28 -43.63,81.7 -75.19,178.24 -33.41,92.83 -64.04,173.58 -91.89,242.29 -5.57,14.85 -0.93,15.77 13.92,2.78l83.55 -89.12c81.69,-96.54 130.89,-155.01 147.61,-175.44 37.13,-46.42 62.19,-76.12 75.18,-89.12l22.28 -22.28c5.57,-9.28 38.99,-54.76 100.25,-136.46 61.28,-81.69 102.12,-134.6 122.54,-158.74l55.68 -77.97 97.48 -130.9c38.99,-53.84 88.64,-127.17 148.98,-220.01 60.35,-92.83 102.59,-161.52 126.72,-206.08 3.72,-5.57 12.07,-19.95 25.07,-43.17 12.99,-23.21 22.27,-40.37 27.85,-51.51 61.27,-118.84 92.83,-202.38 94.69,-250.64 1.86,-26 0.92,-39.93 -2.78,-41.78 -1.87,0 -6.5,1.86 -13.94,5.58 -61.27,31.55 -157.8,124.38 -289.62,278.5zm-545.85 640.52l2.79 0c0,0 0.47,-0.93 1.39,-2.79 0.94,-1.86 2.33,-3.72 4.18,-5.57 1.87,-1.87 4.18,-4.65 6.96,-8.36 2.8,-3.71 5.59,-6.96 8.36,-9.75 2.79,-2.78 5.58,-6.49 8.35,-11.13 2.79,-4.64 6.03,-8.81 9.75,-12.53 3.72,-3.72 7.42,-8.35 11.14,-13.93 27.86,-38.99 48.28,-64.98 61.27,-77.98 3.72,-7.42 4.64,-11.14 2.78,-11.14 -1.85,0 -21.81,24.6 -59.87,73.8 -38.07,49.22 -57.1,75.66 -57.1,79.38zm167.1 -222.8c0,9.28 1.85,11.14 5.57,5.57l2.79 -11.14c0,-5.57 -0.93,-8.35 -2.79,-8.35 -3.72,3.72 -5.57,8.35 -5.57,13.93zm-428.88 465.07l-8.35 27.86c3.72,-1.86 11.13,-12.07 22.27,-30.64 3.72,-5.57 6.5,-11.14 8.35,-16.71 1.87,-5.57 1.87,-8.35 0,-8.35 -1.85,-1.85 -3.71,-0.93 -5.57,2.79 -1.86,3.72 -7.42,12.07 -16.71,25.06zm-36.2 77.98c-5.59,0 -31.1,51.98 -76.59,155.95 -45.48,103.96 -68.23,162.45 -68.23,175.45 0,7.42 3.72,3.72 11.14,-11.13 5.58,-9.29 11.14,-21.36 16.72,-36.22 5.57,-25.99 12.07,-43.62 19.49,-52.91 48.26,-96.53 79.83,-167.08 94.68,-211.65l2.8 -19.49zm-178.23 582.04c-7.43,1.86 -14.4,12.53 -20.9,32.02 -6.48,19.5 -7.87,32.03 -4.18,37.6 3.72,5.58 11.15,-1.85 22.29,-22.27l27.85 -75.2c3.72,-12.99 11.14,-34.8 22.27,-65.44 11.15,-30.62 19.5,-52.44 25.08,-65.44 1.85,-5.57 14.85,-39.92 38.98,-103.03 22.29,-59.42 60.35,-141.11 114.18,-245.08 40.84,-85.41 61.28,-129.96 61.28,-133.67 0,-1.87 10.67,-21.36 32.03,-58.49 21.34,-37.13 46.41,-79.84 75.18,-128.1 28.77,-48.28 49.66,-82.63 62.67,-103.05 14.85,-24.13 32.49,-58.48 52.91,-103.03 25.99,-50.14 61.27,-106.77 105.82,-169.88 44.56,-61.28 63.13,-89.13 55.7,-83.55l-103.04 130.89c-66.83,89.11 -145.74,204.23 -236.71,345.33 -48.27,77.97 -120.68,222.8 -217.22,434.44 -27.86,57.55 -39.93,93.76 -36.21,108.62 3.72,11.14 2.79,16.71 -2.79,16.71 -7.43,0 -9.28,4.64 -5.57,13.93 3.72,7.43 -2.79,25.99 -19.49,55.69 -13,24.15 -24.61,54.31 -34.82,90.51 -10.21,36.21 -13.46,59.88 -9.74,71.03 0,9.27 -1.87,15.77 -5.57,19.48zm-119.76 587.62c7.42,-14.86 11.14,-27.85 11.14,-38.99 0,-14.86 -2.79,-15.79 -8.35,-2.79 -5.58,16.72 -9.29,29.7 -11.14,38.99l-5.57 25.07 13.92 -22.28zm19.49 -80.76c3.72,-14.86 5.57,-26 5.57,-33.43l-2.79 -8.35c0,1.87 -0.92,6.5 -2.78,13.93 -7.42,20.42 -9.29,32.49 -5.58,36.21l5.58 -8.35zm19.49 -89.11c1.86,-9.29 1.86,-14.86 0,-16.73l-2.79 11.14c1.86,3.72 2.79,5.59 2.79,5.59zm22.28 -75.2c0,-7.42 -0.93,-12.07 -2.78,-13.92 -3.72,9.28 -7.43,22.27 -11.14,38.99l0 19.49 2.78 -2.79c5.58,-16.71 9.28,-30.63 11.14,-41.77zm16.71 -61.27c7.43,-14.86 11.14,-28.77 11.14,-41.76 0,-9.29 -0.46,-13.94 -1.39,-13.94 -0.92,0 -2.32,3.72 -4.18,11.15 -3.72,11.14 -7.42,24.13 -11.14,38.98l-5.57 25.08 11.13 -19.5zm8.35 -125.32c3.72,-11.14 3.72,-16.71 0,-16.71 -1.85,-1.86 -4.64,-1.86 -8.35,0 -11.13,1.85 -16.71,12.07 -16.71,30.63 -5.57,24.13 -9.28,38.99 -11.14,44.55 -3.72,11.14 -10.21,26 -19.5,44.56 -7.41,18.57 -30.62,108.62 -69.62,270.13 -29.7,118.82 -44.55,194.02 -44.55,225.58l38.99 -83.55c3.72,-5.58 5.57,-10.21 5.57,-13.93 18.57,-113.25 40.84,-209.8 66.84,-289.63 5.57,-14.85 15.79,-51.06 30.64,-108.62 3.7,-13 7.89,-27.84 12.53,-44.56 4.64,-16.71 8.35,-30.16 11.13,-40.37 2.79,-10.21 4.18,-16.25 4.18,-18.1zm11.14 61.27c7.43,0 9.28,-2.79 5.57,-8.35l-8.35 -8.35c-3.7,0 -5.57,2.79 -5.57,8.35 0,5.57 2.79,8.35 8.35,8.35zm50.13 -200.52l0 11.14c1.87,-1.85 4.66,-4.64 8.36,-8.35 13,-11.14 25.07,-35.28 36.21,-72.41 27.84,-72.41 70.55,-177.31 128.1,-314.7 50.14,-124.38 71.48,-186.59 64.05,-186.59 -9.28,9.28 -29.7,51.98 -61.27,128.11 -14.86,31.56 -37.13,81.69 -66.84,150.39 -9.28,18.56 -19.48,44.55 -30.63,77.97 -3.71,9.29 -8.35,21.35 -13.93,36.2 -5.57,14.86 -9.28,24.14 -11.13,27.86 -3.72,5.58 -13.01,30.63 -27.85,75.19 -3.72,9.28 -8.36,23.21 -13.94,41.77 -5.57,18.56 -9.27,29.69 -11.14,33.41zm-153.16 1462.07c0,5.57 7.41,8.35 22.27,8.35 14.86,0 32.49,-2.31 52.91,-6.96 20.42,-4.64 39,-10.67 55.7,-18.09 68.69,-31.56 134.6,-74.26 197.73,-128.11 85.41,-85.41 165.24,-184.73 239.5,-297.98 40.84,-57.56 64.05,-89.11 69.62,-94.69 7.42,-3.72 11.14,-0.93 11.14,8.35 0,5.58 -1.85,10.21 -5.57,13.93 -9.29,3.72 -12.07,9.28 -8.35,16.71 0,5.57 7.41,-4.64 22.27,-30.63 77.97,-124.38 134.61,-230.22 169.88,-317.47l2.79 -8.35c3.72,-9.29 4.18,-15.79 1.39,-19.5 -2.78,-3.71 -6.95,-0.92 -12.53,8.36l-100.26 83.55c-61.27,48.26 -159.66,140.63 -295.2,277.09 -135.52,136.46 -229.28,236.26 -281.26,299.38 -94.7,116.97 -142.03,185.66 -142.03,206.08zm239.5 72.41c12.99,-3.71 16.71,-8.35 11.14,-13.92 -1.87,-3.72 -8.35,-2.79 -19.5,2.78 -11.14,5.58 -16.71,10.22 -16.71,13.93 0,7.43 8.35,6.49 25.07,-2.79zm50.12 -22.27c1.87,-1.86 0.93,-2.79 -2.78,-2.79l-5.58 0c-7.42,1.85 -11.14,4.64 -11.14,8.35l5.58 2.79c7.43,0 12.07,-2.79 13.92,-8.35zm30.64 -16.72c12.99,-7.42 19.49,-13 19.49,-16.71 0,-3.72 -6.5,-0.93 -19.49,8.35 -7.43,3.71 -13,7.42 -16.71,11.14l0 2.79c3.71,0 9.27,-1.86 16.71,-5.58zm370.4 -359.25l5.57 -13.93c-5.57,-1.85 -9.28,0.93 -11.14,8.35 -1.86,5.58 -2.32,8.82 -1.39,9.75 0.92,0.93 3.25,-0.47 6.96,-4.18zm69.62 -153.17c37.13,-50.14 71.47,-112.33 103.03,-186.59 5.57,-16.73 6.5,-23.21 2.79,-19.5 -5.58,5.58 -23.21,34.81 -52.9,87.72 -29.7,52.92 -44.56,82.16 -44.56,87.72 0,3.72 -4.65,7.43 -13.93,11.14 -7.43,0 -11.15,4.65 -11.15,13.93 0,9.27 -2.78,13.93 -8.35,13.93 -5.57,0 -7.41,2.78 -5.57,8.35 0,9.28 -7.42,21.35 -22.27,36.21 -18.57,18.55 -27.86,32.48 -27.86,41.76 0,7.43 -8.35,21.35 -25.06,41.77 -20.43,16.72 -30.63,27.85 -30.63,33.42 0,9.28 -6.5,16.72 -19.5,22.28 -9.28,7.42 -13.92,9.29 -13.92,5.58 1.85,-1.87 2.78,-3.72 2.78,-5.58 0,-1.86 -0.93,-2.78 -2.78,-2.78 -3.72,0 -9.75,7.41 -18.1,22.27 -8.35,14.86 -12.53,25.99 -12.53,33.42 -3.72,12.99 -10.21,25.06 -19.5,36.2 -9.28,9.29 -16.71,19.49 -22.27,30.64 0,9.27 -6.5,20.42 -19.49,33.41 -13,13 -24.14,19.49 -33.42,19.49 -9.29,0 -13.93,1.86 -13.93,5.58 0,5.58 -6.95,15.78 -20.88,30.63 -13.93,14.86 -22.75,21.35 -26.47,19.49 -5.57,0 -8.35,2.78 -8.35,8.35 0,7.43 -8.35,19.5 -25.06,36.21l-25.07 27.84 22.29 -16.71c24.12,-18.55 51.05,-41.76 80.76,-69.62 51.97,-50.13 111.39,-118.36 178.23,-204.68 66.83,-86.33 98.39,-136 94.68,-148.99 0,-5.59 3.72,-9.28 11.14,-11.15 7.43,-3.71 11.13,-8.35 11.13,-13.93 0,-11.13 5.59,-20.42 16.73,-27.84zm2.78 -103.05c3.72,5.57 11.14,-1.85 22.28,-22.27l5.57 -19.5c0,-5.58 -5.57,-0.92 -16.71,13.93 -11.14,14.86 -14.86,24.13 -11.14,27.85zm41.77 -83.54c-7.42,18.55 -10.67,27.84 -9.75,27.84 0.94,0 6.04,-8.35 15.33,-25.06l11.14 -25.07 -11.14 13.93c-1.86,3.71 -3.72,6.49 -5.58,8.36zm75.19 -217.23l2.79 -13.93 -75.18 136.46c-68.71,133.67 -113.27,208.88 -133.69,225.58 -7.41,7.42 -12.06,15.78 -13.92,25.06 -7.42,16.71 -16.71,25.99 -27.85,27.86 -13,3.71 -15.79,7.42 -8.35,11.14 5.57,1.85 4.18,10.2 -4.18,25.06 -8.36,14.86 -32.96,52.91 -73.81,114.18 -24.13,35.28 -49.21,69.62 -75.19,103.05 -38.98,42.69 -58.48,65.9 -58.48,69.62 0,7.42 -26.46,32.49 -79.37,75.19 -52.91,42.69 -96.09,73.34 -129.5,91.89 -87.26,44.56 -138.32,61.27 -153.17,50.14 -5.58,-5.58 -9.28,-3.72 -11.15,5.57 -3.71,13 5.11,23.21 26.47,30.64 21.34,7.41 44.09,9.28 68.23,5.57 7.41,-1.87 21.35,-2.79 41.77,-2.79l19.49 0 -19.49 -8.35c-13,-3.72 -13,-9.28 0,-16.72 7.42,-3.71 19.49,-10.2 36.2,-19.49 33.42,-16.71 53.84,-25.06 61.27,-25.06 3.72,0 12.07,-6.5 25.06,-19.5l64.05 -61.27c83.56,-79.83 168.03,-183.79 253.43,-311.9 22.28,-35.28 35.28,-54.78 39,-58.48 3.72,0 6.49,0.92 8.35,2.78 7.43,3.71 -0.93,22.28 -25.07,55.7 -24.14,37.13 -36.21,55.69 -36.21,55.69 0,3.72 7.43,-4.64 22.29,-25.07l91.9 -133.67c20.42,-37.13 32.49,-57.55 36.21,-61.27 16.71,-24.14 19.48,-36.21 8.35,-36.21 -5.58,0 -10.22,5.58 -13.93,16.73 -7.43,14.85 -11.15,17.63 -11.15,8.35 0,-18.57 -12.99,-9.29 -38.98,27.84 -16.72,22.29 -25.99,32.49 -27.86,30.64 -3.71,-1.87 9.28,-25.99 39,-72.41 96.55,-167.09 154.1,-276.65 172.66,-328.62zm2367.17 -453.94c16.71,0 13.92,10.22 -8.36,30.64 -16.71,12.99 -26.92,28.77 -30.63,47.34 0,16.72 -3.72,25.07 -11.13,25.07 -5.58,0 -8.35,2.79 -8.35,8.35 0,7.42 -26,39 -77.99,94.68 -53.83,57.57 -80.76,89.12 -80.76,94.7 0,7.42 -22.75,32.95 -68.23,76.58 -45.48,43.63 -70.08,63.59 -73.8,59.88 -1.85,-1.86 -3.72,-1.86 -5.57,0 -1.87,1.85 -2.79,4.64 -2.79,8.35 0,16.71 -37.6,52.45 -112.79,107.22 -75.18,54.77 -141.57,94.22 -199.12,118.37 -105.83,46.41 -194.94,53.83 -267.35,22.27 -16.73,-7.42 -33.89,-19.03 -51.53,-34.81 -17.63,-15.79 -27.39,-29.24 -29.24,-40.38 0,-5.57 -7.42,-15.79 -22.28,-30.63 -33.42,-27.85 -50.13,-74.27 -50.13,-139.25 0,-74.26 10.21,-128.1 30.63,-161.52l11.14 -27.86c7.42,-18.55 12.99,-34.34 16.71,-47.34 48.28,-137.38 99.33,-257.14 153.18,-359.25l38.99 -75.19 -27.85 19.49c-20.42,12.99 -40.84,33.41 -61.27,61.27 -18.57,31.56 -37.15,48.27 -55.7,50.14 -20.42,5.57 -57.55,35.27 -111.4,89.11 -53.83,53.84 -85.41,80.76 -94.68,80.76 -7.43,0 -11.15,4.65 -11.15,13.93 0,14.86 -7.42,29.69 -22.27,44.55 -5.58,5.57 -8.35,5.57 -8.35,0l-16.71 19.5c-3.72,7.42 -27.86,38.99 -72.41,94.68 -29.71,35.28 -80.77,100.26 -153.18,194.95 -63.12,81.69 -104.9,134.6 -125.32,158.74 -20.42,24.13 -48.27,50.12 -83.55,77.97 -35.28,31.56 -60.81,50.6 -76.58,57.09 -15.79,6.5 -32.03,4.18 -48.74,-6.95 -18.57,-9.29 -31.56,-17.64 -39,-25.08 -5.57,-9.27 -11.13,-13.92 -16.71,-13.92 -5.57,0 -9.28,-5.11 -11.14,-15.32 -1.86,-10.21 -0.93,-17.18 2.79,-20.88 7.42,-3.72 6.5,-8.36 -2.79,-13.93 -50.13,-38.99 -51.06,-107.69 -2.78,-206.08 20.42,-39 32.49,-58.49 36.2,-58.49 7.43,0 7.43,7.43 0,22.28 -1.86,5.58 -7.42,17.63 -16.71,36.21 -35.28,76.11 -45.49,125.32 -30.63,147.59 5.57,7.43 8.35,6.5 8.35,-2.79 0,-5.57 5.57,-23.2 16.71,-52.9 12.99,-22.28 17.64,-40.84 13.93,-55.69 -5.58,-13.01 5.57,-37.15 33.42,-72.42 29.7,-44.55 39.92,-64.97 30.62,-61.26 -1.85,1.85 -5.57,4.64 -11.13,8.35 -9.29,5.57 -13.93,5.57 -13.93,0 0,-5.58 2.79,-8.35 8.35,-8.35 1.86,0 10.21,-11.15 25.06,-33.43 9.29,-22.27 21.36,-42.69 36.22,-61.27 29.7,-37.13 56.61,-75.19 80.75,-114.18 63.12,-100.25 104.9,-157.81 125.32,-172.67 7.43,-7.42 11.14,-14.85 11.14,-22.27 0,-9.29 14.86,-33.42 44.56,-72.41 31.56,-35.28 47.35,-56.63 47.35,-64.05 -1.87,-7.42 50.14,-71.48 155.95,-192.16 53.84,-55.7 87.25,-86.32 100.25,-91.91 11.14,0 28.78,-10.2 52.92,-30.62 40.84,-39 87.25,-51.98 139.24,-39 29.7,7.43 47.35,14.86 52.91,22.29 11.14,11.14 24.13,20.42 38.99,27.85 20.42,18.56 37.14,40.84 50.13,66.83 16.71,29.71 28.77,47.35 36.21,52.91 3.71,1.86 12.99,10.22 27.85,25.06 13,13.01 23.21,19.5 30.64,19.5 7.41,0 15.31,10.68 23.66,32.02 8.35,21.36 12.53,42.24 12.53,62.67 0,22.28 -9.28,63.12 -27.84,122.53 -14.86,37.13 -33.43,89.12 -55.7,155.96 -7.43,22.27 -33.43,91.89 -77.97,208.86 -55.7,137.39 -83.56,237.64 -83.56,300.78 0,24.13 0.93,38.52 2.78,43.15 1.87,4.66 7.43,7.89 16.73,9.76 33.41,9.27 79.82,0 139.24,-27.86 120.67,-53.83 253.43,-142.96 398.24,-267.35 42.69,-40.84 67.76,-57.55 75.18,-50.14 1.87,1.86 10.22,-3.24 25.08,-15.31 14.85,-12.07 35.27,-30.17 61.27,-54.31 51.98,-53.84 79.82,-76.12 83.54,-66.83 5.58,7.41 1.86,17.63 -11.13,30.62 -11.14,11.15 -16.71,19.5 -16.71,25.07 1.85,0 19.48,-14.85 52.89,-44.56 27.86,-31.55 49.21,-49.2 64.05,-52.91 13.01,-3.7 20.42,-9.28 22.29,-16.71 1.85,-11.14 9.74,-23.21 23.67,-36.21 13.92,-12.99 23.66,-19.49 29.24,-19.49zm-1623.6 116.97c-3.72,0 -5.57,2.79 -5.57,8.35 0,13.01 6.5,10.22 19.49,-8.35 7.43,-11.13 8.35,-17.63 2.78,-19.48 -5.57,-1.87 -8.35,0.92 -8.35,8.35 0,7.41 -2.78,11.13 -8.35,11.13zm359.26 -33.42c7.42,9.28 12.06,10.22 13.93,2.8 1.85,-3.72 1.85,-9.28 0,-16.72 -1.87,-11.14 -6.5,-13 -13.93,-5.58 -7.43,3.72 -7.43,10.22 0,19.49zm142.03 -194.94l-75.18 72.42c-26,27.85 -51.53,55.22 -76.59,82.15 -25.07,26.93 -45.03,48.74 -59.88,65.44 -14.85,16.71 -21.34,25.06 -19.49,25.06l13.92 -11.13c7.43,-9.29 19.96,-23.21 37.61,-41.78 17.63,-18.55 32.95,-35.26 45.95,-50.12 63.12,-68.7 99.33,-103.05 108.61,-103.05 7.43,-1.85 11.15,-4.64 11.15,-8.35 0,-7.43 4.64,-17.63 13.92,-30.63zm100.25 -222.79c20.42,-53.85 30.64,-81.69 30.64,-83.55 -1.86,-1.86 -24.14,14.39 -66.84,48.73 -42.69,34.36 -68.7,57.09 -77.97,68.23 -14.86,16.72 -23.21,20.42 -25.07,11.15 0,-1.87 0.93,-4.65 2.78,-8.36 1.87,-3.71 2.33,-6.49 1.4,-8.35 -0.92,-1.86 -3.25,-1.86 -6.96,0 -5.57,3.72 -8.35,10.21 -8.35,19.5 0,12.99 -41.78,64.96 -125.32,155.94 -31.56,31.56 -73.34,82.63 -125.32,153.18 -11.14,14.84 -24.14,31.56 -39,50.12 -14.84,18.57 -25.99,33.43 -33.41,44.56 -7.43,11.14 -12.07,17.64 -13.92,19.49 -13.01,14.86 -43.17,62.21 -90.52,142.04 -47.34,79.83 -71.02,124.39 -71.02,133.67 0,11.14 29.71,-17.63 89.13,-86.33 1.85,-3.71 3.7,-6.48 5.57,-8.35 105.82,-128.11 165.24,-192.16 178.22,-192.16 3.72,0 5.59,3.72 5.59,11.14l2.78 2.79c0,-1.86 0.92,-4.64 2.79,-8.35 7.42,-9.29 7.42,-17.64 0,-25.06 -3.72,-5.58 20.42,-37.13 72.41,-94.7 35.28,-38.98 58.48,-63.11 69.62,-72.41 11.14,-9.28 21.35,-12.99 30.62,-11.14 9.29,1.86 14.4,1.86 15.33,0 0.92,-1.85 -0.47,-5.57 -4.18,-11.13 -9.28,-7.43 12.99,-38.07 66.84,-91.91 53.83,-55.69 91.9,-108.61 114.17,-158.73z"/>
    <path class="fil0" d="M10954.06 2183.61c9.29,-5.57 13.93,-1.86 13.93,11.14 -1.86,38.99 -23.21,87.26 -64.05,144.81l-19.49 22.27c-16.71,18.57 -26.93,22.29 -30.64,11.15 -3.7,-7.43 0.94,-21.35 13.94,-41.77l19.49 -33.43 -25.06 22.29c-11.15,9.28 -37.15,45.48 -77.99,108.61 -35.28,53.84 -112.31,154.57 -231.14,302.17 -118.83,147.6 -196.81,239.96 -233.94,277.1 -35.28,29.7 -55.7,51.98 -61.27,66.84 -3.72,14.86 -9.28,25.99 -16.71,33.41 -7.43,11.14 -9.28,16.71 -5.57,16.71 12.99,0 52.91,-33.41 119.75,-100.25 64.97,-66.83 132.74,-144.8 203.3,-233.94 48.26,-64.98 92.83,-123.92 133.67,-176.84 40.84,-52.9 72.4,-92.36 94.68,-118.35 22.29,-26.01 33.42,-36.21 33.42,-30.64 0,5.57 -17.63,36.21 -52.91,91.9 -37.13,50.13 -66.83,94.69 -89.11,133.68 -18.56,29.69 -66.83,93.75 -144.82,192.15 -77.97,98.4 -133.67,165.24 -167.08,200.52 -79.84,83.55 -166.17,165.24 -258.99,245.08 -35.28,29.69 -81.69,63.57 -139.26,101.64 -57.55,38.06 -95.61,58.95 -114.17,62.66 -1.86,1.87 -6.95,4.18 -15.33,6.96 -8.35,2.78 -15.77,5.57 -22.27,8.36 -6.5,2.79 -12.53,5.1 -18.1,6.96 -16.72,7.41 -51.97,12.99 -105.83,16.71 -53.83,1.85 -97.46,-5.58 -130.89,-22.28 -116.97,-55.69 -194.01,-132.75 -231.15,-231.15 -20.43,-51.98 -32.48,-80.76 -36.2,-86.32 -39,-89.12 -45.5,-209.8 -19.5,-362.04 18.56,-107.68 53.84,-246.01 105.83,-414.96 51.98,-168.94 103.05,-307.25 153.18,-414.94l27.85 -66.84c-1.86,-13 36.67,-95.62 115.57,-247.85 78.91,-152.25 139.71,-260.86 182.42,-325.84 9.28,-14.85 19.02,-31.09 29.23,-48.74 10.21,-17.63 19.5,-34.34 27.86,-50.13 8.35,-15.79 13.46,-25.54 15.32,-29.23 14.85,-27.86 56.61,-91.91 125.32,-192.16 68.68,-100.26 155.02,-219.55 258.99,-357.86 103.96,-138.33 219.54,-272.46 346.71,-402.42 127.19,-129.97 239.98,-219.08 338.37,-267.36 27.85,-12.99 59.41,-14.86 94.68,-5.58 35.28,9.29 60.36,26 75.19,50.14 26.01,39 41.77,65.9 47.35,80.76 5.57,14.85 6.49,34.34 2.78,58.48 -5.57,42.71 -35.27,122.54 -89.11,239.51 -44.56,94.68 -118.82,238.57 -222.8,431.65 -103.96,193.09 -177.31,323.05 -220,389.89 -1.87,1.85 -6.04,8.35 -12.53,19.49 -6.5,11.13 -16.25,27.38 -29.24,48.74 -13,21.35 -25.07,40.38 -36.2,57.09 -81.7,128.11 -124.4,194.94 -128.11,200.51l-111.4 167.1c-83.54,124.39 -188.91,268.28 -316.08,431.66 -127.18,163.37 -225.1,279.42 -293.81,348.11 -35.27,37.13 -77.04,68.23 -125.32,93.3 -48.26,25.06 -85.4,35.74 -111.39,32.02 -14.85,-3.72 -25.06,1.85 -30.63,16.71l-16.71 50.13c-9.28,33.43 -24.14,98.4 -44.56,194.94 -31.56,191.24 -17.63,329.55 41.78,414.96 14.85,22.28 36.19,37.13 64.04,44.55 33.42,3.72 57.56,5.59 72.41,5.59 74.27,-3.72 179.15,-51.99 314.7,-144.82 50.14,-35.28 120.22,-97.01 210.26,-185.2 90.04,-88.18 165.71,-169.41 226.97,-243.68 77.98,-90.97 121.6,-137.38 130.9,-139.25 18.55,-3.71 44.55,-28.77 77.97,-75.18 14.86,-24.14 39,-51.06 72.41,-80.76 74.27,-74.28 157.81,-181.02 250.64,-320.27 25.99,-40.84 44.56,-66.83 55.7,-77.98 11.13,-11.14 17.63,-10.2 19.48,2.8 0,11.14 -4.64,24.13 -13.92,38.98 -18.57,27.86 -19.49,37.13 -2.79,27.86zm-1411.94 2.79c-35.28,89.11 -53.84,139.24 -55.7,150.38 -1.86,11.14 0.94,7.42 8.35,-11.14 7.42,-18.56 26.93,-67.76 58.49,-147.59l47.35 -130.91c-3.72,3.72 -23.21,50.14 -58.49,139.26zm1289.41 -1253.21c3.72,-11.14 4.64,-16.71 2.79,-16.71 -1.86,1.85 -5.12,6.02 -9.75,12.53 -4.64,6.5 -7.89,12.99 -9.74,19.49 -1.87,6.49 -1.87,9.74 0,9.74 3.72,0 9.28,-8.35 16.71,-25.06zm-181.02 -384.31c-16.71,20.42 -57.55,75.18 -122.53,164.3 -64.97,89.13 -126.71,174.07 -185.2,254.82 -58.48,80.78 -88.65,122.08 -90.5,123.93 -59.42,72.41 -134.61,185.67 -225.58,339.76 -141.1,246.92 -215.36,386.17 -222.79,417.74 -1.87,22.28 -37.13,104.89 -105.83,247.85 -85.42,207.94 -133.68,336.98 -144.81,387.1 -1.86,9.28 -1.86,13.93 0,13.93 3.72,1.86 16.71,-7.43 39,-27.86 120.66,-103.96 285.9,-300.77 495.7,-590.39 20.42,-25.99 43.17,-56.63 68.23,-91.91 25.07,-35.27 45.95,-64.04 62.66,-86.32 16.73,-22.27 27.86,-37.13 33.43,-44.56 29.7,-38.98 55.7,-76.12 77.97,-111.38 24.14,-42.71 53.84,-85.42 89.12,-128.12 38.99,-48.27 109.53,-157.8 211.65,-328.62 113.25,-185.65 213.51,-363.89 300.78,-534.69 70.54,-141.11 103.97,-214.44 100.25,-220.01 -3.71,-3.71 -1.86,-9.27 5.57,-16.71 24.14,-24.14 40.84,-71.48 50.13,-142.03l8.35 -58.49 -27.84 19.49c-22.29,14.85 -39,27.86 -50.14,39 -13,12.99 -38.06,36.19 -75.18,69.62 -81.7,72.41 -179.17,173.59 -292.42,303.56zm-1047.12 1475.99c1.86,11.14 4.64,13 8.35,5.57 1.86,-3.72 2.79,-7.41 2.79,-11.13 0,-5.58 -0.93,-8.35 -2.79,-8.35 -5.57,3.72 -8.35,8.35 -8.35,13.92zm47.34 -97.46l-27.85 64.05c7.42,-7.43 15.79,-22.29 25.06,-44.56l5.57 -22.28 -2.78 2.79zm41.77 -86.34l0 5.58c3.72,-3.71 8.35,-11.14 13.93,-22.28 3.72,-9.28 5.57,-13.92 5.57,-13.92 0,0 -2.79,2.79 -8.35,8.35 -9.28,9.28 -12.99,16.71 -11.14,22.27zm77.97 -167.08c0,9.27 4.66,5.58 13.94,-11.15l5.57 -8.35 11.14 -25.06 -16.71 16.71c-9.28,13.01 -13.94,22.28 -13.94,27.86zm80.78 -139.25c-3.72,1.86 -9.76,10.21 -18.11,25.07 -8.35,14.86 -15.32,29.23 -20.88,43.16 -5.58,13.93 -7.42,20.89 -5.58,20.89 3.72,0 13.93,-15.79 30.63,-47.35 11.15,-27.85 15.79,-41.77 13.94,-41.77zm19.48 -30.63c-1.85,9.29 -2.78,14.39 -2.78,15.32 0,0.93 2.78,-2.33 8.35,-9.74 1.85,-11.14 13.92,-32.5 36.21,-64.05 16.71,-29.71 23.2,-44.56 19.49,-44.56 -5.58,0 -8.36,1.86 -8.36,5.57 0,3.72 -8.35,17.63 -25.07,41.77 -18.55,26 -27.85,44.56 -27.85,55.7zm66.84 -122.53c1.85,11.14 5.57,9.28 11.14,-5.57 0,-5.58 -0.94,-8.36 -2.79,-8.36 -5.57,5.58 -8.35,10.21 -8.35,13.93zm50.13 -100.26c1.86,1.87 2.79,3.72 2.79,5.57l0 0c3.72,-3.7 8.35,-11.13 13.92,-22.27 5.58,-7.42 7.89,-11.6 6.96,-12.53 -0.93,-0.93 -4.18,1.39 -9.74,6.96 -9.29,9.28 -13.93,16.71 -13.93,22.27zm239.51 -247.85c-7.43,9.28 -10.68,14.39 -9.76,15.33 0.93,0.92 5.11,-2.33 12.54,-9.75 11.14,-7.43 16.71,-13.93 16.71,-19.5 0,-11.13 -6.49,-6.49 -19.48,13.93zm-668.39 1019.28c-85.41,200.52 -128.11,314.69 -128.11,342.54 1.86,3.72 7.42,-3.72 16.72,-22.28l36.21 -77.98c0,-5.58 10.2,-35.28 30.62,-89.11 27.86,-66.84 43.63,-103.97 47.35,-111.4 11.14,-33.41 23.21,-64.05 36.21,-91.89 14.84,-26 26.91,-52.92 36.2,-80.78l72.41 -150.38c38.99,-77.97 60.35,-122.53 64.04,-133.67 3.72,-11.13 23.21,-47.35 58.49,-108.62 33.42,-53.83 50.13,-83.54 50.13,-89.11 0,-5.57 6.5,-16.71 19.49,-33.42 16.72,-16.71 25.07,-28.77 25.07,-36.2 -1.86,-3.72 2.32,-12.07 12.54,-25.07 10.2,-12.99 17.18,-19.49 20.88,-19.49 5.57,0 12.07,-5.57 19.5,-16.71 3.7,-7.43 5.57,-11.14 5.57,-11.14 0,0 -3.72,2.79 -11.15,8.35 -7.42,7.42 -11.14,7.42 -11.14,0 0,-13 2.79,-20.42 8.35,-22.28 3.72,-3.71 14.86,-20.42 33.43,-50.13 9.28,-20.42 41.77,-67.76 97.47,-142.04 50.12,-66.83 75.18,-102.11 75.18,-105.82 0,-5.57 6.49,-16.72 19.49,-33.42l13.93 -30.63c-9.29,0 -81.7,103.04 -217.22,309.13 -159.66,245.06 -303.56,518.91 -431.66,821.54zm-214.43 807.62c7.42,-33.41 11.14,-52.91 11.14,-58.49 -1.87,-3.71 -3.72,-1.85 -5.57,5.58l-8.36 25.07c-7.42,24.14 -11.14,44.56 -11.14,61.27l13.93 -33.42zm41.76 -175.45c13.01,-50.13 16.73,-74.27 11.14,-72.42 -5.57,11.15 -8.35,20.42 -8.35,27.86 0,3.72 -5.57,26 -16.71,66.84 -14.86,51.98 -19.49,77.04 -13.92,75.18l27.84 -97.46zm4525.46 -905.1c44.56,-31.55 75.19,-34.34 91.9,-8.35 11.15,16.71 6.49,32.49 -13.93,47.35 -1.85,1.85 -5.57,3.72 -11.14,5.57 -5.57,1.86 -10.2,3.72 -13.92,5.58 -3.72,3.72 -21.81,16.71 -54.3,39 -32.49,22.27 -63.59,44.54 -93.29,66.83 -29.71,22.27 -45.5,33.41 -47.35,33.41 -22.29,22.29 -70.56,55.7 -144.81,100.26 -22.29,14.86 -38.06,26.93 -47.35,36.2 -44.56,33.42 -78.9,57.56 -103.04,72.42 -3.72,1.85 -17.17,11.6 -40.38,29.23 -23.21,17.64 -42.24,32.02 -57.08,43.17 -14.86,11.14 -39,28.77 -72.42,52.9 -33.41,24.14 -54.77,39 -64.05,44.56 -40.84,31.56 -64.05,48.28 -69.62,50.13l-11.14 8.35c-7.42,5.58 -17.17,13.01 -29.23,22.28 -12.07,9.28 -23.68,17.63 -34.82,25.07 -126.25,90.98 -189.37,141.1 -189.37,150.38 0,5.58 6.5,14.86 19.49,27.86 90.97,77.98 133.68,180.09 128.11,306.34 -5.58,68.69 -13.93,116.04 -25.06,142.03 -7.42,20.42 -16.72,30.63 -27.85,30.63 -5.58,1.86 -9.29,3.72 -11.15,5.57 1.86,1.87 -0.92,7.43 -8.35,16.72 -7.42,7.42 -11.14,12.99 -11.14,16.71 -5.57,11.14 -33.41,41.78 -83.55,91.9 -50.13,50.14 -121.6,98.41 -214.44,144.82 -87.25,44.55 -173.59,67.76 -258.99,69.62 -50.12,0 -89.11,-7.43 -116.96,-22.28 -29.7,-18.56 -46.42,-30.63 -50.13,-36.2 -22.29,-44.56 -31.56,-75.19 -27.86,-91.91 0,-7.42 -3.71,-22.28 -11.14,-44.55 -9.28,-20.42 -12.07,-45.49 -8.35,-75.2 5.58,-55.68 15.79,-83.54 30.63,-83.54 3.72,0 7.43,-5.58 11.15,-16.71 1.85,-11.14 7.41,-18.57 16.71,-22.29 9.28,-3.71 19.02,-15.32 29.23,-34.81 10.21,-19.48 16.25,-39.45 18.1,-59.87 3.71,-20.42 13,-39 27.85,-55.7 14.86,-16.71 57.55,-59.41 128.11,-128.11 42.69,-40.84 64.98,-59.42 66.83,-55.7 0,3.72 -1.85,9.29 -5.57,16.71l0 19.5c5.57,-3.72 24.6,-19.96 57.09,-48.74 32.49,-28.77 48.74,-45.02 48.74,-48.74 0,-3.71 -5.57,-4.64 -16.72,-2.79 -7.42,1.87 -15.78,0.94 -25.06,-2.78 -1.85,-3.72 -25.99,-21.36 -72.41,-52.91 -83.55,-55.7 -127.17,-94.69 -130.89,-116.97 -3.72,-11.14 -9.29,-17.62 -16.71,-19.49 -18.57,-11.14 -40.38,-42.7 -65.45,-94.68 -25.07,-51.98 -35.75,-88.19 -32.03,-108.62 1.86,-5.58 -0.93,-20.42 -8.35,-44.56 -18.56,-51.98 -16.71,-112.32 5.58,-181.02 20.42,-66.84 66.37,-144.35 137.85,-232.54 71.49,-88.19 152.71,-168.48 243.68,-240.89 7.43,-7.43 15.32,-14.4 23.67,-20.88 8.36,-6.5 15.33,-11.61 20.89,-15.33l8.35 -5.58c20.42,-20.42 102.12,-75.18 245.08,-164.3 103.97,-59.42 177.31,-97.47 220,-114.19 22.29,-7.42 40.84,-14.85 55.7,-22.27 16.71,-9.28 39.92,-12.07 69.62,-8.36 50.14,5.57 72.41,21.35 66.84,47.35 -3.71,9.28 0,14.85 11.13,16.71 7.43,0 17.64,6.49 30.64,19.5 9.29,11.13 14.86,26.45 16.71,45.94 1.87,19.5 -0.92,34.82 -8.35,45.95 -7.41,11.14 -8.35,19.49 -2.78,25.08 3.72,7.41 -3.72,19.48 -22.28,36.19 -20.42,14.86 -48.28,26 -83.56,33.43 -51.98,11.14 -96.53,25.06 -133.67,41.76 -128.1,55.7 -260.84,136.46 -398.23,242.29 -102.11,77.97 -191.22,161.53 -267.35,250.64 -76.12,89.11 -117.91,158.74 -125.32,208.87 -1.87,20.42 8.35,43.62 30.62,69.62 26,33.42 54.31,60.35 84.95,80.77 30.63,20.42 90.51,52.91 179.62,97.46 42.7,22.29 68.7,34.36 77.98,36.21 9.27,1.85 21.34,-3.72 36.2,-16.71l181.02 -136.47c40.84,-27.85 61.27,-43.63 61.27,-47.34 0,-3.72 6.5,-8.35 19.49,-13.93 9.28,-3.71 38.99,-23.67 89.12,-59.87 50.13,-36.21 83.54,-61.74 100.24,-76.59 7.43,-7.42 13.01,-9.27 16.73,-5.57 0,1.86 -11.15,13.92 -33.43,36.21 -63.11,53.83 -94.68,83.54 -94.68,89.11 0,3.72 0.92,5.57 2.79,5.57 1.85,0 44.55,-29.69 128.1,-89.11l158.74 -111.39c11.13,-7.42 35.27,-25.07 72.4,-52.92 11.14,-7.41 31.56,-22.27 61.28,-44.54 16.72,-9.29 40.84,-26 72.41,-50.14 68.7,-44.56 103.97,-62.2 105.83,-52.91 3.72,5.57 11.13,5.57 22.27,0 33.43,-16.71 59.42,-34.34 77.99,-52.91 1.85,-1.86 10.2,-6.5 25.06,-13.93 13,-5.57 19.49,-11.13 19.49,-16.71l8.36 -5.57c5.57,-3.72 11.6,-7.89 18.09,-12.54 6.5,-4.64 11.6,-7.88 15.32,-9.75zm-971.92 1052.7l-75.19 -41.78c-16.72,-9.28 -37.14,-20.42 -61.27,-33.41 -24.14,-13 -37.15,-19.5 -39,-19.5l-25.06 -8.35 -75.2 69.63c-92.83,85.41 -184.72,175.45 -275.7,270.14 -20.42,20.42 -40.38,46.87 -59.88,79.36 -19.49,32.49 -31.1,57.09 -34.81,73.8 -1.86,16.71 3.71,27.85 16.72,33.43 31.56,11.13 81.69,10.2 150.38,-2.8 89.12,-14.85 149.46,-36.2 181.02,-64.05 9.28,-9.27 24.14,-15.78 44.56,-19.49 22.27,-3.72 35.28,-12.99 38.98,-27.85 1.87,-11.13 25.08,-40.84 69.63,-89.12 77.98,-77.97 123.46,-142.96 136.47,-194.94l8.35 -25.06zm1924.36 -1470.43c-5.58,7.42 -19.49,33.41 -41.77,77.97 -18.56,42.7 -34.35,71.48 -47.34,86.33 -16.71,24.14 -32.49,54.76 -47.35,91.91 -9.28,18.55 -27.85,52.89 -55.7,103.03 -7.42,11.14 -23.21,42.71 -47.33,94.69 -13.01,33.42 -31.57,70.56 -55.7,111.4 -9.29,12.99 -53.85,100.25 -133.67,261.78 -64.98,139.24 -100.26,211.65 -105.84,217.21 -9.28,13.01 -14.85,13.01 -16.71,0l2.79 -16.71c7.42,-14.85 8.35,-21.81 2.79,-20.88 -5.58,0.92 -13.94,8.81 -25.08,23.67 -11.13,18.57 -12.99,32.49 -5.57,41.77 13,20.42 8.35,48.27 -13.92,83.55 -13.01,18.57 -19.96,24.6 -20.88,18.09 -0.94,-6.49 5.1,-21.81 18.09,-45.95l16.71 -33.41c-3.72,0 -12.07,11.6 -25.06,34.8 -13,23.21 -21.35,40.38 -25.07,51.53 -3.71,40.84 -22.28,91.91 -55.69,153.18 -9.28,14.86 -15.79,31.56 -19.5,50.12 -5.57,20.42 -15.78,40.84 -30.62,61.28 -14.86,20.42 -31.56,56.63 -50.14,108.61 -18.57,51.98 -33.42,89.13 -44.56,111.4 -12.99,26 -19.49,44.56 -19.49,55.7 0,1.85 -4.64,14.86 -13.92,38.98 -16.72,33.43 -35.75,90.52 -57.09,171.28 -21.36,80.76 -35.74,147.13 -43.17,199.12 -3.72,29.7 -11.14,77.05 -22.27,142.04 -5.58,24.13 -13.01,35.27 -22.29,33.42 -3.71,-1.86 -6.49,-4.64 -8.35,-8.35 -3.71,-7.43 -8.35,-9.29 -13.93,-5.58 -7.41,1.86 -18.09,-6.03 -32.01,-23.68 -13.94,-17.62 -19.96,-31.08 -18.11,-40.37 0,-9.28 -4.64,-15.79 -13.92,-19.48 -26,-11.15 -35.74,-67.31 -29.24,-168.49 6.49,-101.18 27.39,-205.62 62.67,-313.31 57.55,-178.23 156.88,-423.31 297.98,-735.22 141.11,-311.91 297.05,-628.45 467.86,-949.65l164.31 -309.12c14.86,-24.13 21.35,-40.84 19.5,-50.12 -1.87,-9.29 -13,-17.64 -33.42,-25.08 -14.86,-3.72 -24.15,-9.28 -27.85,-16.71 -7.43,-9.28 -54.31,-14.4 -140.65,-15.32 -86.33,-0.93 -169.41,3.25 -249.25,12.53 -154.1,20.43 -282.2,50.14 -384.31,89.11 -25.99,9.29 -49.2,0 -69.62,-27.84 -20.42,-27.86 -26.92,-60.34 -19.49,-97.48 5.57,-14.85 2.79,-22.27 -8.35,-22.27 -22.29,-1.85 -22.29,-22.27 0,-61.27 7.42,-11.14 15.78,-21.36 25.06,-30.63 13,-14.85 22.29,-28.78 27.86,-41.77 5.58,-9.28 26.46,-18.57 62.67,-27.86 36.19,-9.27 58.01,-11.14 65.44,-5.57 5.57,3.72 31.56,0 77.97,-11.14 50.14,-7.42 124.39,-15.78 222.79,-25.06 102.11,-9.29 154.11,-16.73 155.96,-22.29 0,-7.42 3.72,-7.42 11.14,0 5.57,5.57 32.49,8.36 80.75,8.36 87.26,3.71 149.46,24.13 186.6,61.28 11.13,12.99 22.28,14.84 33.42,5.57 20.42,-11.15 40.84,-18.57 61.27,-22.29 24.14,-7.42 45.48,-6.49 64.05,2.79 14.86,9.28 24.14,19.5 27.85,30.64 3.72,9.28 14.85,18.55 33.42,27.84 16.71,7.43 34.35,26 52.91,55.7 18.56,29.71 28.77,55.7 30.63,77.97 1.85,22.29 -3.72,48.28 -16.71,77.99l-39 91.9c-11.14,24.14 -51.98,100.25 -122.53,228.36zm-618.24 1122.31c3.71,-5.58 7.42,-13.93 11.14,-25.06 3.7,-11.14 6.02,-20.43 6.95,-27.85 0.92,-7.43 0.46,-12.07 -1.39,-13.94l-19.5 33.42c-11.14,24.15 -24.13,51.98 -38.99,83.55 -14.85,31.56 -25.99,55.7 -33.42,72.41l-8.35 30.64c7.43,-7.43 20.42,-32.49 39,-75.19 22.27,-44.56 37.13,-70.55 44.56,-77.98zm136.46 -559.76l-52.92 97.46c-66.83,137.39 -129.04,269.22 -186.59,395.46 -222.8,490.14 -336.97,814.13 -342.55,971.94 -1.85,24.13 -2.78,36.2 -2.78,36.2l8.36 -25.07c3.71,-24.14 9.27,-43.62 16.71,-58.48 5.57,-11.14 25.99,-69.62 61.27,-175.45 53.83,-172.67 129.96,-370.4 228.36,-593.18 55.69,-118.83 85.41,-192.16 89.12,-220.02 11.13,-37.13 35.27,-94.68 72.41,-172.65 48.26,-102.12 76.11,-164.32 83.54,-186.59 9.29,-33.43 17.64,-56.64 25.08,-69.63zm1910.42 -802.05c22.29,29.7 35.28,92.83 39,189.37 3.72,46.41 0.46,120.21 -9.75,221.39 -10.21,101.2 -21.81,176.85 -34.81,226.98 -27.85,122.53 -74.27,243.21 -139.25,362.03 -77.97,131.82 -145.74,237.64 -203.29,317.48 -96.55,131.81 -202.37,264.56 -317.48,398.23 -11.13,11.14 -28.32,29.71 -51.52,55.7 -23.21,25.99 -38.53,42.7 -45.96,50.14 -48.27,59.4 -119.75,133.67 -214.43,222.79l-89.11 83.54 47.34 0c7.43,0 22.28,-0.92 44.56,-2.79 22.27,-1.85 37.13,-2.78 44.56,-2.78 72.41,-11.14 170.8,-20.42 295.19,-27.85 7.43,0 17.63,-0.46 30.64,-1.39 12.99,-0.94 21.35,-1.4 25.06,-1.4 5.57,-1.85 16.25,-3.26 32.03,-4.18 15.77,-0.93 27.38,-1.39 34.8,-1.39 42.71,0 103.05,-2.79 181.02,-8.35 102.11,-3.72 160.6,-4.65 175.45,-2.79 20.43,1.86 38.07,7.42 52.92,16.71 14.85,9.29 22.27,19.49 22.27,30.63 -1.85,5.57 3.72,16.72 16.71,33.42 13,12.99 19.5,22.28 19.5,27.85 -3.72,7.43 -0.93,19.5 8.35,36.21 9.28,24.14 13.93,43.63 13.93,58.48 0,14.86 -3.72,22.28 -11.14,22.28 -5.58,0 -10.22,1.87 -13.93,5.57 0,7.43 -9.28,15.79 -27.86,25.08 -18.55,9.27 -35.27,13.92 -50.13,13.92 -24.13,0 -44.55,2.79 -61.27,8.35 -20.42,3.72 -35.27,0.93 -44.55,-8.35 -7.43,-11.14 -15.79,-16.71 -25.07,-16.71 -9.28,0 -15.78,-3.72 -19.49,-11.15 -3.72,-9.27 -34.35,-13.92 -91.9,-13.92 -200.53,0 -398.25,13.92 -593.19,41.77 -161.52,22.27 -252.49,38.06 -272.91,47.35 -16.71,7.41 -82.63,26.45 -197.73,57.09 -115.12,30.62 -177.31,45.02 -186.59,43.15 -13.01,0 -24.14,-11.13 -33.43,-33.41 -11.13,-18.56 -13.92,-40.84 -8.35,-66.83 3.72,-14.86 4.66,-23.68 2.79,-26.47 -1.85,-2.79 -6.5,-3.25 -13.92,-1.39 -7.42,1.86 -12.07,0.93 -13.93,-2.79 -1.86,-3.72 -1.86,-11.14 0,-22.27 1.86,-13.01 8.35,-26.93 19.49,-41.78 11.14,-14.85 20.42,-22.27 27.86,-22.27 1.85,1.85 4.64,0.46 8.35,-4.18 3.71,-4.66 7.42,-10.68 11.14,-18.11 37.13,-74.26 66.83,-119.74 89.11,-136.46 9.28,-3.7 15.79,-3.24 19.5,1.4 3.7,4.65 3.7,11.61 0,20.89 -5.59,16.71 0,25.06 16.71,25.06 9.28,0 20.42,-4.64 33.41,-13.92 116.97,-74.28 247.39,-179.17 391.29,-314.7 143.87,-135.54 278.03,-280.36 402.41,-434.45 142.97,-172.66 252.5,-326.76 328.62,-462.29 102.11,-176.39 157.81,-296.13 167.09,-359.26 3.71,-35.28 12.99,-75.18 27.85,-119.76 14.86,-55.69 25.07,-123.46 30.64,-203.29 9.27,-87.25 8.35,-156.88 -2.79,-208.86 -24.14,-105.84 -51.07,-170.82 -80.77,-194.95 -74.26,-59.41 -161.52,-73.34 -261.78,-41.77 -79.83,24.14 -170.8,79.83 -272.91,167.08 -111.4,92.84 -198.67,190.3 -261.78,292.42 -18.57,29.7 -31.1,48.28 -37.61,55.69 -6.49,7.42 -16.25,12.07 -29.23,13.93 -16.72,0 -33.42,-9.29 -50.13,-27.85 -16.71,-16.72 -26.93,-25.07 -30.64,-25.07 -5.57,0 -10.2,-13.93 -13.92,-41.77 -5.58,-29.7 -3.72,-55.69 5.57,-77.98 31.56,-77.97 110.94,-174.98 238.11,-291.02 127.17,-116.04 239.03,-192.63 335.58,-229.76 29.7,-12.99 76.12,-21.34 139.26,-25.06 63.11,-3.72 98.39,-0.93 105.82,8.35 5.57,5.57 25.07,19.49 58.48,41.78 126.26,83.54 208.87,177.3 247.86,281.26 5.57,18.57 13,34.34 22.27,47.35zm-492.92 2161.07c0,1.86 3.71,3.72 11.14,5.58 7.42,1.85 11.14,0.93 11.14,-2.79 -9.29,-3.72 -16.71,-4.64 -22.28,-2.79zm22.28 -857.75c68.69,-92.83 98.39,-142.96 89.11,-150.38 -11.14,-5.57 -32.48,14.86 -64.05,61.27 -103.97,135.53 -184.73,234.86 -242.28,297.99 -7.43,7.42 -45.49,48.27 -114.18,122.53 -185.67,213.5 -355.54,374.1 -509.64,481.78 -42.71,31.56 -64.05,49.21 -64.05,52.92 1.85,1.85 9.27,2.32 22.27,1.39 13.01,-0.93 30.63,-3.25 52.91,-6.96 22.28,-3.72 41.78,-8.35 58.49,-13.92 27.85,-11.14 70.55,-40.84 128.1,-89.12 124.39,-113.25 210.72,-198.65 259,-256.22 7.41,-9.27 16.71,-19.49 27.84,-30.62 9.29,-9.29 23.21,-26 41.78,-50.14 31.56,-42.69 68.69,-87.25 111.39,-133.67 50.14,-61.27 89.11,-113.25 116.97,-155.95l86.33 -130.9z"/>
    <path class="fil0" d="M12368.79 2183.61c9.29,-5.57 13.93,-1.86 13.93,11.14 -1.86,38.99 -23.21,87.26 -64.05,144.81l-19.49 22.27c-16.71,18.57 -26.93,22.29 -30.64,11.15 -3.7,-7.43 0.94,-21.35 13.94,-41.77l19.49 -33.43 -25.06 22.29c-11.15,9.28 -37.15,45.48 -77.99,108.61 -35.28,53.84 -112.31,154.57 -231.14,302.17 -118.83,147.6 -196.81,239.96 -233.94,277.1 -35.28,29.7 -55.7,51.98 -61.27,66.84 -3.72,14.86 -9.28,25.99 -16.71,33.41 -7.43,11.14 -9.28,16.71 -5.57,16.71 12.99,0 52.91,-33.41 119.75,-100.25 64.97,-66.83 132.74,-144.8 203.3,-233.94 48.26,-64.98 92.82,-123.92 133.67,-176.84 40.84,-52.9 72.4,-92.36 94.68,-118.35 22.29,-26.01 33.42,-36.21 33.42,-30.64 0,5.57 -17.63,36.21 -52.91,91.9 -37.13,50.13 -66.83,94.69 -89.11,133.68 -18.57,29.69 -66.83,93.75 -144.82,192.15 -77.97,98.4 -133.67,165.24 -167.08,200.52 -79.84,83.55 -166.17,165.24 -258.99,245.08 -35.28,29.69 -81.69,63.57 -139.26,101.64 -57.55,38.06 -95.61,58.95 -114.17,62.66 -1.86,1.87 -6.95,4.18 -15.33,6.96 -8.35,2.78 -15.78,5.57 -22.27,8.36 -6.5,2.79 -12.53,5.1 -18.1,6.96 -16.72,7.41 -51.97,12.99 -105.83,16.71 -53.83,1.85 -97.46,-5.58 -130.89,-22.28 -116.97,-55.69 -194.01,-132.75 -231.15,-231.15 -20.43,-51.98 -32.48,-80.76 -36.2,-86.32 -39,-89.12 -45.5,-209.8 -19.5,-362.04 18.56,-107.68 53.84,-246.01 105.83,-414.96 51.98,-168.94 103.05,-307.25 153.18,-414.94l27.85 -66.84c-1.86,-13 36.67,-95.62 115.57,-247.85 78.91,-152.25 139.71,-260.86 182.42,-325.84 9.28,-14.85 19.02,-31.09 29.23,-48.74 10.21,-17.63 19.5,-34.34 27.86,-50.13 8.35,-15.79 13.46,-25.54 15.31,-29.23 14.86,-27.86 56.62,-91.91 125.32,-192.16 68.69,-100.26 155.03,-219.55 259,-357.86 103.96,-138.33 219.54,-272.46 346.71,-402.42 127.19,-129.97 239.98,-219.08 338.37,-267.36 27.85,-12.99 59.41,-14.86 94.68,-5.58 35.28,9.29 60.36,26 75.19,50.14 26.01,39 41.77,65.9 47.35,80.76 5.57,14.85 6.49,34.34 2.78,58.48 -5.57,42.71 -35.27,122.54 -89.11,239.51 -44.56,94.68 -118.82,238.57 -222.8,431.65 -103.96,193.09 -177.31,323.05 -220,389.89 -1.87,1.85 -6.04,8.35 -12.53,19.49 -6.5,11.13 -16.25,27.38 -29.25,48.74 -12.99,21.35 -25.06,40.38 -36.19,57.09 -81.7,128.11 -124.4,194.94 -128.11,200.51l-111.4 167.1c-83.54,124.39 -188.91,268.28 -316.08,431.66 -127.18,163.37 -225.11,279.42 -293.81,348.11 -35.27,37.13 -77.04,68.23 -125.32,93.3 -48.27,25.06 -85.4,35.74 -111.39,32.02 -14.85,-3.72 -25.06,1.85 -30.63,16.71l-16.71 50.13c-9.28,33.43 -24.14,98.4 -44.56,194.94 -31.56,191.24 -17.63,329.55 41.78,414.96 14.85,22.28 36.19,37.13 64.04,44.55 33.41,3.72 57.56,5.59 72.41,5.59 74.26,-3.72 179.15,-51.99 314.7,-144.82 50.14,-35.28 120.22,-97.01 210.26,-185.2 90.04,-88.18 165.71,-169.41 226.97,-243.68 77.98,-90.97 121.6,-137.38 130.9,-139.25 18.55,-3.71 44.55,-28.77 77.97,-75.18 14.86,-24.14 39,-51.06 72.41,-80.76 74.27,-74.28 157.81,-181.02 250.64,-320.27 25.99,-40.84 44.56,-66.83 55.7,-77.98 11.13,-11.14 17.63,-10.2 19.48,2.8 0,11.14 -4.64,24.13 -13.92,38.98 -18.57,27.86 -19.49,37.13 -2.79,27.86zm-1411.94 2.79c-35.28,89.11 -53.84,139.24 -55.7,150.38 -1.86,11.14 0.94,7.42 8.35,-11.14 7.42,-18.56 26.93,-67.76 58.49,-147.59l47.35 -130.91c-3.72,3.72 -23.21,50.14 -58.49,139.26zm1289.41 -1253.21c3.72,-11.14 4.64,-16.71 2.79,-16.71 -1.86,1.85 -5.12,6.02 -9.75,12.53 -4.64,6.5 -7.89,12.99 -9.74,19.49 -1.87,6.49 -1.87,9.74 0,9.74 3.72,0 9.28,-8.35 16.71,-25.06zm-181.02 -384.31c-16.71,20.42 -57.55,75.18 -122.53,164.3 -64.97,89.13 -126.72,174.07 -185.2,254.82 -58.49,80.78 -88.65,122.08 -90.5,123.93 -59.42,72.41 -134.61,185.67 -225.58,339.76 -141.1,246.92 -215.37,386.17 -222.79,417.74 -1.87,22.28 -37.13,104.89 -105.83,247.85 -85.42,207.94 -133.68,336.98 -144.81,387.1 -1.86,9.28 -1.86,13.93 0,13.93 3.72,1.86 16.71,-7.43 38.99,-27.86 120.67,-103.96 285.91,-300.77 495.71,-590.39 20.42,-25.99 43.17,-56.63 68.23,-91.91 25.07,-35.27 45.95,-64.04 62.66,-86.32 16.73,-22.27 27.86,-37.13 33.43,-44.56 29.7,-38.98 55.7,-76.12 77.97,-111.38 24.14,-42.71 53.84,-85.42 89.12,-128.12 38.99,-48.27 109.53,-157.8 211.65,-328.62 113.25,-185.65 213.51,-363.89 300.78,-534.69 70.54,-141.11 103.97,-214.44 100.25,-220.01 -3.71,-3.71 -1.86,-9.27 5.57,-16.71 24.14,-24.14 40.84,-71.48 50.13,-142.03l8.35 -58.49 -27.84 19.49c-22.29,14.85 -39,27.86 -50.14,39 -13,12.99 -38.06,36.19 -75.18,69.62 -81.7,72.41 -179.17,173.59 -292.42,303.56zm-1047.12 1475.99c1.86,11.14 4.64,13 8.35,5.57 1.86,-3.72 2.79,-7.41 2.79,-11.13 0,-5.58 -0.93,-8.35 -2.79,-8.35 -5.57,3.72 -8.35,8.35 -8.35,13.92zm47.34 -97.46l-27.85 64.05c7.42,-7.43 15.79,-22.29 25.06,-44.56l5.57 -22.28 -2.78 2.79zm41.77 -86.34l0 5.58c3.72,-3.71 8.35,-11.14 13.93,-22.28 3.72,-9.28 5.57,-13.92 5.57,-13.92 0,0 -2.79,2.79 -8.35,8.35 -9.28,9.28 -12.99,16.71 -11.14,22.27zm77.97 -167.08c0,9.27 4.66,5.58 13.94,-11.15l5.57 -8.35 11.14 -25.06 -16.71 16.71c-9.28,13.01 -13.94,22.28 -13.94,27.86zm80.78 -139.25c-3.72,1.86 -9.76,10.21 -18.11,25.07 -8.35,14.86 -15.32,29.23 -20.88,43.16 -5.58,13.93 -7.42,20.89 -5.58,20.89 3.72,0 13.93,-15.79 30.63,-47.35 11.15,-27.85 15.79,-41.77 13.94,-41.77zm19.48 -30.63c-1.85,9.29 -2.78,14.39 -2.78,15.32 0,0.93 2.78,-2.33 8.35,-9.74 1.85,-11.14 13.92,-32.5 36.21,-64.05 16.71,-29.71 23.2,-44.56 19.48,-44.56 -5.57,0 -8.35,1.86 -8.35,5.57 0,3.72 -8.35,17.63 -25.07,41.77 -18.55,26 -27.85,44.56 -27.85,55.7zm66.84 -122.53c1.85,11.14 5.57,9.28 11.14,-5.57 0,-5.58 -0.94,-8.36 -2.79,-8.36 -5.58,5.58 -8.35,10.21 -8.35,13.93zm50.13 -100.26c1.86,1.87 2.79,3.72 2.79,5.57l0 0c3.72,-3.7 8.35,-11.13 13.92,-22.27 5.58,-7.42 7.89,-11.6 6.96,-12.53 -0.93,-0.93 -4.18,1.39 -9.74,6.96 -9.29,9.28 -13.93,16.71 -13.93,22.27zm239.51 -247.85c-7.43,9.28 -10.68,14.39 -9.76,15.33 0.93,0.92 5.11,-2.33 12.54,-9.75 11.14,-7.43 16.71,-13.93 16.71,-19.5 0,-11.13 -6.49,-6.49 -19.48,13.93zm-668.39 1019.28c-85.41,200.52 -128.11,314.69 -128.11,342.54 1.86,3.72 7.42,-3.72 16.71,-22.28l36.22 -77.98c0,-5.58 10.2,-35.28 30.62,-89.11 27.86,-66.84 43.63,-103.97 47.35,-111.4 11.13,-33.41 23.21,-64.05 36.21,-91.89 14.84,-26 26.91,-52.92 36.2,-80.78l72.41 -150.38c38.99,-77.97 60.35,-122.53 64.04,-133.67 3.72,-11.13 23.21,-47.35 58.49,-108.62 33.42,-53.83 50.13,-83.54 50.13,-89.11 0,-5.57 6.5,-16.71 19.49,-33.42 16.72,-16.71 25.07,-28.77 25.07,-36.2 -1.86,-3.72 2.32,-12.07 12.53,-25.07 10.21,-12.99 17.19,-19.49 20.89,-19.49 5.57,0 12.07,-5.57 19.5,-16.71 3.7,-7.43 5.57,-11.14 5.57,-11.14 0,0 -3.72,2.79 -11.15,8.35 -7.42,7.42 -11.14,7.42 -11.14,0 0,-13 2.79,-20.42 8.35,-22.28 3.72,-3.71 14.86,-20.42 33.43,-50.13 9.28,-20.42 41.77,-67.76 97.47,-142.04 50.12,-66.83 75.18,-102.11 75.18,-105.82 0,-5.57 6.49,-16.72 19.49,-33.42l13.93 -30.63c-9.29,0 -81.7,103.04 -217.22,309.13 -159.67,245.06 -303.56,518.91 -431.66,821.54zm-214.43 807.62c7.42,-33.41 11.14,-52.91 11.14,-58.49 -1.87,-3.71 -3.72,-1.85 -5.58,5.58l-8.35 25.07c-7.43,24.14 -11.14,44.56 -11.14,61.27l13.93 -33.42zm41.76 -175.45c13.01,-50.13 16.73,-74.27 11.14,-72.42 -5.57,11.15 -8.35,20.42 -8.35,27.86 0,3.72 -5.57,26 -16.71,66.84 -14.86,51.98 -19.49,77.04 -13.92,75.18l27.84 -97.46z"/>
   </g>
   <path class="fil0" d="M3018.72 5601.44l0 -452.87c0,-25.16 -3.49,-45.43 -10.49,-60.81 -6.98,-15.38 -23.05,-23.05 -48.22,-23.05l-16.77 0 0 -16.79 75.47 0c14.54,0 26.69,1.27 36.49,3.78 9.78,2.52 17.59,7.54 23.48,15.11 5.86,7.54 9.92,17.88 12.16,31.02 2.24,13.14 3.36,30.05 3.36,50.74l0 419.32 197.08 0 0 -519.97 75.47 0 0 519.97 197.09 0 0 -519.97 75.48 0 0 553.52 -620.61 0zm1409.77 0c-9.5,2.8 -20.68,4.19 -33.54,4.19 -9.5,0 -20.54,-1.12 -33.12,-3.36 -12.58,-2.23 -25.45,-7.12 -38.59,-14.67 -13.14,-7.54 -25.99,-18.59 -38.57,-33.12 -12.58,-14.55 -23.35,-33.84 -32.3,-57.88l-20.96 -54.5 -234.83 0 -67.09 159.34 -37.74 0 234.83 -553.52 25.16 0 184.5 448.68c6.71,15.67 13.01,28.93 18.87,39.84 5.86,10.9 12.44,19.72 19.7,26.42 7.27,6.71 15.1,11.75 23.49,15.11 8.38,3.36 18.44,5.6 30.18,6.7l0 16.78zm-419.32 -192.89l205.47 0 -100.63 -243.21 -104.84 243.21zm791.69 -62.9c11.75,0 25.03,-2.24 39.85,-6.71 14.82,-4.48 28.93,-12.02 42.34,-22.64 13.43,-10.62 24.74,-24.46 33.98,-41.51 9.22,-17.06 13.83,-38.16 13.83,-63.31 0,-25.16 -4.61,-46.27 -13.83,-63.32 -9.24,-17.06 -20.55,-30.88 -33.98,-41.51 -13.41,-10.62 -27.53,-18.17 -42.34,-22.64 -14.82,-4.47 -28.1,-6.7 -39.85,-6.7 -10.62,0 -21.66,0.83 -33.12,2.51 -11.46,1.68 -21.38,3.64 -29.77,5.87l0 251.59c8.39,2.24 18.31,4.2 29.77,5.87 11.46,1.67 22.5,2.52 33.12,2.52zm-62.9 255.79l-75.47 0 0 -452.87c0,-25.16 -3.5,-45.43 -10.49,-60.81 -6.98,-15.38 -23.06,-23.05 -48.22,-23.05l-16.77 0 0 -16.79 218.04 0c17.89,0 38.87,1.68 62.91,5.04 24.04,3.36 46.96,10.76 68.76,22.22 21.81,11.46 40.26,28.39 55.35,50.75 15.1,22.36 22.65,52.27 22.65,89.73 0,24.04 -3.49,44.58 -10.49,61.64 -6.98,17.06 -16.08,31.45 -27.25,43.2 -11.19,11.73 -23.63,21.24 -37.33,28.52 -13.7,7.26 -27.4,12.71 -41.09,16.35 -13.7,3.64 -26.55,6.14 -38.57,7.55 -12.02,1.39 -21.95,2.09 -29.77,2.09l-92.26 0 0 226.44zm630.67 -318.68l92.26 0c20.68,0 43.32,1.95 67.93,5.86 24.6,3.92 47.38,11.74 68.34,23.48 20.97,11.75 38.45,27.96 52.41,48.64 13.99,20.69 20.97,47.81 20.97,81.36 0,33.54 -6.98,60.66 -20.97,81.34 -13.97,20.69 -31.44,36.91 -52.41,48.65 -20.96,11.74 -43.74,19.57 -68.34,23.49 -24.61,3.91 -47.25,5.86 -67.93,5.86l-167.73 0 0 -452.87c0,-25.16 -3.5,-45.43 -10.49,-60.81 -6.98,-15.38 -23.06,-23.05 -48.22,-23.05l-16.77 0 0 -16.79 75.47 0c14.53,0 26.69,1.27 36.48,3.78 9.79,2.52 17.6,7.54 23.49,15.11 5.86,7.54 9.91,17.88 12.15,31.02 2.24,13.14 3.36,30.05 3.36,50.74l0 134.19zm218.05 159.34c0,-21.8 -3.49,-40.96 -10.48,-57.46 -6.99,-16.49 -16.64,-30.04 -28.93,-40.66 -12.31,-10.63 -26.84,-18.59 -43.61,-23.91 -16.78,-5.31 -35.22,-7.96 -55.35,-7.96 -12.86,0 -26.14,0.98 -39.84,2.93 -13.7,1.97 -26.98,4.91 -39.84,8.82l0 236.49c12.86,3.92 26.14,6.84 39.84,8.8 13.7,1.96 26.98,2.94 39.84,2.94 20.13,0 38.58,-2.66 55.35,-7.96 16.78,-5.32 31.3,-13.29 43.61,-23.9 12.3,-10.63 21.94,-24.19 28.93,-40.67 6.99,-16.5 10.48,-35.65 10.48,-57.45zm150.95 -394.18l75.48 0 0 452.88c0,25.16 3.5,45.41 10.49,60.79 6.98,15.38 23.05,23.07 48.22,23.07l16.78 0 0 16.78 -75.48 0c-14.54,0 -26.69,-1.26 -36.48,-3.78 -9.79,-2.52 -17.6,-7.55 -23.49,-15.1 -5.86,-7.54 -9.92,-17.74 -12.16,-30.61 -2.24,-12.85 -3.36,-29.9 -3.36,-51.15l0 -452.88zm1142.25 75.48l-268.38 478.03 -75.47 0 0 -452.87c0,-25.16 -3.49,-45.43 -10.49,-60.81 -6.98,-15.38 -23.06,-23.05 -48.22,-23.05l-16.77 0 0 -16.79 75.47 0c14.54,0 26.69,1.27 36.49,3.78 9.78,2.52 17.59,7.54 23.48,15.11 5.86,7.54 9.92,17.88 12.16,31.02 2.23,13.14 3.35,30.05 3.35,50.74l0 377.4 268.38 -478.04 75.47 0 0 553.52 -75.47 0 0 -478.03zm805.94 213.85c0,27.4 2.94,53.26 8.82,77.57 5.86,24.33 15.51,45.71 28.92,64.16 13.42,18.45 31.45,32.98 54.09,43.61 22.65,10.62 50.74,15.94 84.29,15.94l0 -402.56c-33.55,0 -61.64,5.32 -84.29,15.94 -22.64,10.62 -40.67,25.16 -54.09,43.61 -13.42,18.44 -23.06,39.84 -28.92,64.15 -5.88,24.32 -8.82,50.18 -8.82,77.57zm427.73 0c0,-27.4 -2.95,-53.25 -8.81,-77.57 -5.86,-24.32 -15.52,-45.71 -28.93,-64.15 -13.42,-18.45 -31.45,-32.99 -54.08,-43.61 -22.65,-10.62 -50.75,-15.94 -84.3,-15.94l0 402.56c33.55,0 61.65,-5.32 84.3,-15.94 22.63,-10.63 40.66,-25.16 54.08,-43.61 13.42,-18.45 23.07,-39.84 28.93,-64.16 5.86,-24.31 8.81,-50.18 8.81,-77.57zm-176.13 -234.82c44.17,0 82.47,5.59 114.9,16.77 32.42,11.19 59.4,26.99 80.93,47.38 21.53,20.41 37.6,45.01 48.22,73.82 10.62,28.78 15.94,61.08 15.94,96.86 0,35.79 -5.32,68.07 -15.94,96.87 -10.62,28.79 -26.69,53.39 -48.22,73.8 -21.53,20.41 -48.51,36.21 -80.93,47.39 -32.43,11.19 -70.73,16.78 -114.9,16.78l0 54.51 -75.47 0 0 -54.51c-44.17,0 -82.47,-5.59 -114.89,-16.78 -32.43,-11.18 -59.42,-26.98 -80.93,-47.39 -21.53,-20.4 -37.61,-45 -48.24,-73.8 -10.61,-28.79 -15.93,-61.08 -15.93,-96.87 0,-35.78 5.32,-68.07 15.93,-96.86 10.63,-28.8 26.71,-53.4 48.24,-73.82 21.51,-20.39 48.5,-36.19 80.93,-47.38 32.42,-11.18 70.72,-16.77 114.89,-16.77l0 -4.2c0,-21.25 -4.48,-36.34 -13.43,-45.29 -8.93,-8.94 -24.04,-13.42 -45.28,-13.42l-16.77 0 0 -16.78 75.47 0c29.07,0 48.92,5.32 59.54,15.94 10.63,10.63 15.94,30.47 15.94,59.55l0 4.2zm931.75 222.24c0,-39.7 -4.06,-75.61 -12.16,-107.77 -8.1,-32.15 -19.7,-59.55 -34.81,-82.18 -15.09,-22.65 -33.55,-39.99 -55.35,-52.01 -21.8,-12.02 -46.4,-18.01 -73.8,-18.01 -27.4,0 -51.99,5.99 -73.8,18.01 -21.82,12.03 -40.26,29.36 -55.35,52.01 -15.11,22.63 -26.7,50.03 -34.81,82.18 -8.1,32.15 -12.17,68.07 -12.17,107.77 0,39.71 4.07,75.62 12.17,107.77 8.11,32.14 19.7,59.54 34.81,82.19 15.09,22.65 33.53,39.98 55.35,51.99 21.8,12.02 46.4,18.03 73.8,18.03 27.4,0 51.99,-6.01 73.8,-18.03 21.8,-12.02 40.26,-29.34 55.35,-51.99 15.11,-22.65 26.71,-50.05 34.81,-82.19 8.1,-32.14 12.16,-68.06 12.16,-107.77zm-436.09 0c0,-40.8 6,-79.11 18.02,-114.89 12.02,-35.79 29.35,-66.95 51.99,-93.52 22.65,-26.55 50.05,-47.38 82.19,-62.48 32.15,-15.1 68.06,-22.64 107.77,-22.64 39.7,0 75.61,7.54 107.77,22.64 32.15,15.1 59.55,35.93 82.19,62.48 22.64,26.57 39.98,57.73 52,93.52 12.02,35.78 18.01,74.09 18.01,114.89 0,41.38 -5.99,79.81 -18.01,115.31 -12.03,35.51 -29.36,66.54 -52,93.09 -22.64,26.57 -50.04,47.39 -82.19,62.5 -32.15,15.09 -68.07,22.63 -107.77,22.63 -39.71,0 -75.61,-7.54 -107.77,-22.63 -32.14,-15.11 -59.54,-35.93 -82.19,-62.5 -22.64,-26.55 -39.98,-57.58 -51.99,-93.09 -12.02,-35.5 -18.02,-73.93 -18.02,-115.31zm1205.14 -276.76l0 33.55 -188.71 0 0 519.97 -75.47 0 0 -519.97 -75.47 0c-33.55,0 -59.41,7.69 -77.57,23.07 -18.17,15.38 -27.27,39.83 -27.27,73.38l-16.77 0 0 -62.9c0,-8.39 0.98,-16.64 2.94,-24.74 1.95,-8.11 5.59,-15.24 10.9,-21.39 5.31,-6.15 12.58,-11.18 21.8,-15.1 9.22,-3.91 21.1,-5.87 35.65,-5.87l389.97 0zm618.08 276.76c0,-39.7 -4.06,-75.61 -12.16,-107.77 -8.1,-32.15 -19.7,-59.55 -34.81,-82.18 -15.09,-22.65 -33.54,-39.99 -55.35,-52.01 -21.8,-12.02 -46.4,-18.01 -73.8,-18.01 -27.4,0 -51.99,5.99 -73.8,18.01 -21.81,12.03 -40.26,29.36 -55.35,52.01 -15.11,22.63 -26.7,50.03 -34.81,82.18 -8.1,32.15 -12.16,68.07 -12.16,107.77 0,39.71 4.06,75.62 12.16,107.77 8.11,32.14 19.7,59.54 34.81,82.19 15.09,22.65 33.54,39.98 55.35,51.99 21.8,12.02 46.4,18.03 73.8,18.03 27.4,0 51.99,-6.01 73.8,-18.03 21.81,-12.02 40.26,-29.34 55.35,-51.99 15.11,-22.65 26.71,-50.05 34.81,-82.19 8.1,-32.14 12.16,-68.06 12.16,-107.77zm-436.09 0c0,-40.8 6,-79.11 18.02,-114.89 12.02,-35.79 29.35,-66.95 51.99,-93.52 22.65,-26.55 50.05,-47.38 82.19,-62.48 32.15,-15.1 68.07,-22.64 107.77,-22.64 39.7,0 75.61,7.54 107.78,22.64 32.14,15.1 59.54,35.93 82.19,62.48 22.63,26.57 39.98,57.73 51.99,93.52 12.02,35.78 18.02,74.09 18.02,114.89 0,41.38 -6,79.81 -18.02,115.31 -12.02,35.51 -29.36,66.54 -51.99,93.09 -22.65,26.57 -50.05,47.39 -82.19,62.5 -32.16,15.09 -68.08,22.63 -107.78,22.63 -39.7,0 -75.61,-7.54 -107.77,-22.63 -32.14,-15.11 -59.54,-35.93 -82.19,-62.5 -22.64,-26.55 -39.98,-57.58 -51.99,-93.09 -12.02,-35.5 -18.02,-73.93 -18.02,-115.31zm864.64 -20.96l62.92 0c19,0 37.03,-2.66 54.08,-7.96 17.06,-5.33 32.15,-13 45.29,-23.07 13.14,-10.06 23.62,-22.65 31.45,-37.74 7.81,-15.1 11.73,-32.7 11.73,-52.84 0,-20.12 -3.63,-37.45 -10.9,-51.99 -7.27,-14.53 -16.77,-26.69 -28.52,-36.47 -11.73,-9.8 -25.16,-17.06 -40.24,-21.82 -15.11,-4.75 -30.48,-7.11 -46.13,-7.11 -40.26,0 -74.22,11.88 -101.9,35.63 -27.67,23.77 -46.83,56.61 -57.44,98.55l-16.79 0c0,-25.16 0.85,-46.41 2.53,-63.74 1.68,-17.32 7.83,-32.43 18.44,-45.28 7.27,-8.95 16.92,-17.06 28.93,-24.33 12.03,-7.26 25.3,-13.41 39.85,-18.44 14.53,-5.04 29.63,-8.95 45.28,-11.75 15.65,-2.79 30.75,-4.19 45.28,-4.19 20.7,0 42.91,1.81 66.68,5.46 23.76,3.63 45.57,10.9 65.41,21.8 19.84,10.9 36.34,26.55 49.48,46.96 13.14,20.41 19.71,47.39 19.71,80.94 0,27.4 -9.51,52.68 -28.52,75.89 -19,23.2 -48.64,41.23 -88.9,54.09 26.28,5.03 48.23,12.02 65.84,20.96 17.6,8.95 31.86,19.42 42.76,31.44 10.91,12.03 18.59,25.73 23.07,41.09 4.48,15.38 6.71,31.74 6.71,49.07 0,32.43 -7,58.99 -20.97,79.68 -13.99,20.68 -31.73,36.89 -53.25,48.64 -21.52,11.74 -45.15,19.85 -70.88,24.32 -25.72,4.47 -50.03,6.7 -72.95,6.7 -41.94,0 -79.68,-7.54 -113.23,-22.63 -33.53,-15.11 -62.9,-42.5 -88.05,-82.19l16.77 -12.58c19.02,25.16 42.36,45.41 70.04,60.79 27.68,15.38 61.64,23.07 101.9,23.07 44.16,0 79.66,-10.62 106.5,-31.86 26.84,-21.25 40.26,-51.17 40.26,-89.74 0,-40.25 -13.43,-71.28 -40.26,-93.09 -26.84,-21.81 -66.52,-32.71 -119.08,-32.71l-62.92 0 0 -33.54zm982.06 20.96c0,-39.7 -4.06,-75.61 -12.16,-107.77 -8.1,-32.15 -19.7,-59.55 -34.8,-82.18 -15.1,-22.65 -33.55,-39.99 -55.35,-52.01 -21.81,-12.02 -46.41,-18.01 -73.81,-18.01 -27.4,0 -51.99,5.99 -73.8,18.01 -21.81,12.03 -40.26,29.36 -55.35,52.01 -15.1,22.63 -26.7,50.03 -34.8,82.18 -8.1,32.15 -12.17,68.07 -12.17,107.77 0,39.71 4.07,75.62 12.17,107.77 8.1,32.14 19.7,59.54 34.8,82.19 15.09,22.65 33.54,39.98 55.35,51.99 21.8,12.02 46.4,18.03 73.8,18.03 27.4,0 51.99,-6.01 73.81,-18.03 21.8,-12.02 40.25,-29.34 55.35,-51.99 15.1,-22.65 26.7,-50.05 34.8,-82.19 8.1,-32.14 12.16,-68.06 12.16,-107.77zm-436.09 0c0,-40.8 6,-79.11 18.02,-114.89 12.02,-35.79 29.35,-66.95 51.99,-93.52 22.65,-26.55 50.05,-47.38 82.19,-62.48 32.15,-15.1 68.07,-22.64 107.77,-22.64 39.7,0 75.61,7.54 107.78,22.64 32.14,15.1 59.54,35.93 82.19,62.48 22.63,26.57 39.98,57.73 51.99,93.52 12.02,35.78 18.02,74.09 18.02,114.89 0,41.38 -6,79.81 -18.02,115.31 -12.02,35.51 -29.36,66.54 -51.99,93.09 -22.65,26.57 -50.05,47.39 -82.19,62.5 -32.16,15.09 -68.08,22.63 -107.78,22.63 -39.7,0 -75.61,-7.54 -107.77,-22.63 -32.14,-15.11 -59.54,-35.93 -82.19,-62.5 -22.64,-26.55 -39.98,-57.58 -51.99,-93.09 -12.02,-35.5 -18.02,-73.93 -18.02,-115.31zm1211.85 176.13c0,25.16 3.5,45.41 10.48,60.79 6.98,15.38 23.07,23.07 48.23,23.07l16.77 0 0 16.78 -75.47 0c-14.55,0 -26.7,-1.26 -36.48,-3.78 -9.79,-2.52 -17.61,-7.55 -23.49,-15.1 -5.86,-7.54 -9.93,-17.74 -12.15,-30.61 -2.24,-12.85 -3.36,-29.9 -3.36,-51.15l0 -167.73 -251.6 0 0 268.37 -75.47 0 0 -452.87c0,-25.16 -3.5,-45.43 -10.49,-60.81 -6.98,-15.38 -23.06,-23.05 -48.22,-23.05l-16.77 0 0 -16.79 75.47 0c14.53,0 26.69,1.27 36.48,3.78 9.78,2.52 17.6,7.54 23.48,15.11 5.87,7.54 9.92,17.88 12.16,31.02 2.24,13.14 3.36,30.05 3.36,50.74l0 150.96 251.6 0 0 -251.6 75.47 0 0 452.88zm421.84 -218.05l92.26 0c20.68,0 43.31,1.95 67.93,5.86 24.6,3.92 47.38,11.74 68.34,23.48 20.97,11.75 38.45,27.96 52.41,48.64 13.99,20.69 20.97,47.81 20.97,81.36 0,33.54 -6.98,60.66 -20.97,81.34 -13.97,20.69 -31.44,36.91 -52.41,48.65 -20.96,11.74 -43.74,19.57 -68.34,23.49 -24.62,3.91 -47.25,5.86 -67.93,5.86l-167.73 0 0 -452.87c0,-25.16 -3.5,-45.43 -10.49,-60.81 -6.98,-15.38 -23.06,-23.05 -48.22,-23.05l-16.77 0 0 -16.79 75.47 0c14.53,0 26.69,1.27 36.48,3.78 9.78,2.52 17.6,7.54 23.48,15.11 5.87,7.54 9.92,17.88 12.16,31.02 2.24,13.14 3.36,30.05 3.36,50.74l0 134.19zm218.05 159.34c0,-21.8 -3.5,-40.96 -10.48,-57.46 -6.99,-16.49 -16.65,-30.04 -28.93,-40.66 -12.31,-10.63 -26.84,-18.59 -43.62,-23.91 -16.77,-5.31 -35.21,-7.96 -55.35,-7.96 -12.85,0 -26.13,0.98 -39.83,2.93 -13.7,1.97 -26.99,4.91 -39.84,8.82l0 236.49c12.85,3.92 26.14,6.84 39.84,8.8 13.7,1.96 26.98,2.94 39.83,2.94 20.14,0 38.59,-2.66 55.35,-7.96 16.79,-5.32 31.31,-13.29 43.62,-23.9 12.29,-10.63 21.94,-24.19 28.93,-40.67 6.98,-16.5 10.48,-35.65 10.48,-57.45zm150.95 -394.18l75.48 0 0 452.88c0,25.16 3.5,45.41 10.49,60.79 6.98,15.38 23.05,23.07 48.21,23.07l16.79 0 0 16.78 -75.48 0c-14.54,0 -26.7,-1.26 -36.48,-3.78 -9.79,-2.52 -17.61,-7.55 -23.49,-15.1 -5.86,-7.54 -9.92,-17.74 -12.16,-30.61 -2.24,-12.85 -3.36,-29.9 -3.36,-51.15l0 -452.88z"/>
  </g>
 </g>
</svg>
